<svg xmlns="http://www.w3.org/2000/svg" xmlns:xlink="http://www.w3.org/1999/xlink" width="310" zoomAndPan="magnify" viewBox="0 0 232.5 60" height="80" preserveAspectRatio="xMidYMid meet" version="1.0"><defs><g/><clipPath id="a106c60b55"><path d="M 0 0.0625 L 59.871094 0.0625 L 59.871094 59.933594 L 0 59.933594 Z M 0 0.0625 " clip-rule="nonzero"/></clipPath><clipPath id="552caf0ae3"><path d="M 29.9375 0.0625 C 13.402344 0.0625 0 13.46875 0 30 C 0 46.53125 13.402344 59.9375 29.9375 59.9375 C 46.46875 59.9375 59.871094 46.53125 59.871094 30 C 59.871094 13.46875 46.46875 0.0625 29.9375 0.0625 Z M 29.9375 0.0625 " clip-rule="nonzero"/></clipPath><clipPath id="89de3b446e"><path d="M 11.878906 13.878906 L 51.390625 13.878906 L 51.390625 48.605469 L 11.878906 48.605469 Z M 11.878906 13.878906 " clip-rule="nonzero"/></clipPath></defs><g clip-path="url(#a106c60b55)"><g clip-path="url(#552caf0ae3)"><path fill="#ffd100" d="M -5.988281 -5.921875 L 65.859375 -5.921875 L 65.859375 65.921875 L -5.988281 65.921875 Z M -5.988281 -5.921875 " fill-opacity="1" fill-rule="nonzero"/></g></g><path fill="#080808" d="M 21.953125 48.207031 C 21.726562 48.207031 21.503906 48.199219 21.285156 48.179688 C 21.0625 48.160156 20.839844 48.128906 20.621094 48.09375 C 20.402344 48.054688 20.183594 48.003906 19.96875 47.949219 C 19.753906 47.890625 19.539062 47.824219 19.332031 47.746094 C 19.121094 47.671875 18.914062 47.585938 18.714844 47.492188 C 18.511719 47.398438 18.3125 47.292969 18.121094 47.183594 C 17.925781 47.070312 17.738281 46.949219 17.558594 46.824219 C 17.375 46.695312 17.199219 46.558594 17.027344 46.414062 C 16.855469 46.273438 16.691406 46.121094 16.535156 45.964844 C 16.378906 45.804688 16.226562 45.640625 16.082031 45.46875 C 15.941406 45.300781 15.804688 45.121094 15.675781 44.941406 C 15.550781 44.757812 15.429688 44.570312 15.320312 44.375 C 15.207031 44.183594 15.105469 43.984375 15.011719 43.78125 C 14.917969 43.582031 14.832031 43.375 14.757812 43.164062 C 14.679688 42.953125 14.613281 42.742188 14.554688 42.527344 C 14.5 42.3125 14.453125 42.09375 14.414062 41.875 C 14 39.53125 13.8125 37.167969 13.84375 34.789062 C 13.875 32.410156 14.128906 30.058594 14.605469 27.726562 C 15.074219 25.410156 15.753906 23.15625 16.644531 20.964844 C 17.535156 18.777344 18.617188 16.683594 19.894531 14.695312 C 19.386719 16.242188 18.96875 17.816406 18.648438 19.414062 C 18.328125 21.007812 18.101562 22.617188 17.972656 24.242188 C 17.84375 25.867188 17.808594 27.492188 17.875 29.117188 C 17.941406 30.746094 18.101562 32.363281 18.355469 33.972656 C 18.402344 34.226562 18.460938 34.476562 18.527344 34.722656 C 18.59375 34.972656 18.671875 35.21875 18.761719 35.457031 C 18.847656 35.699219 18.949219 35.9375 19.058594 36.167969 C 19.167969 36.402344 19.285156 36.628906 19.414062 36.851562 C 19.542969 37.074219 19.683594 37.292969 19.832031 37.5 C 19.976562 37.710938 20.136719 37.914062 20.300781 38.109375 C 20.46875 38.308594 20.640625 38.496094 20.824219 38.679688 C 21.007812 38.859375 21.195312 39.03125 21.394531 39.195312 C 21.589844 39.363281 21.796875 39.519531 22.003906 39.664062 C 22.21875 39.8125 22.433594 39.949219 22.65625 40.078125 C 22.878906 40.203125 23.109375 40.324219 23.339844 40.429688 C 23.574219 40.539062 23.8125 40.636719 24.054688 40.722656 C 24.296875 40.8125 24.542969 40.886719 24.789062 40.953125 C 25.039062 41.019531 25.289062 41.074219 25.542969 41.117188 C 25.796875 41.164062 26.050781 41.195312 26.308594 41.21875 C 26.5625 41.238281 26.820312 41.25 27.078125 41.25 C 27.535156 41.25 27.992188 41.214844 28.445312 41.144531 C 30.761719 40.785156 33.03125 40.230469 35.253906 39.480469 C 37.476562 38.730469 39.617188 37.796875 41.679688 36.675781 C 44.808594 34.980469 47.664062 32.914062 50.253906 30.476562 C 48.542969 33.242188 46.507812 35.746094 44.148438 37.988281 C 41.707031 40.308594 39.007812 42.269531 36.042969 43.871094 C 33.984375 44.988281 31.839844 45.910156 29.613281 46.632812 C 27.445312 47.332031 25.238281 47.835938 22.980469 48.140625 C 22.640625 48.183594 22.296875 48.207031 21.953125 48.207031 Z M 21.953125 48.207031 " fill-opacity="1" fill-rule="nonzero"/><g clip-path="url(#89de3b446e)"><path fill="#ffd100" d="M 60.253906 22.039062 C 58.574219 21.65625 56.910156 21.21875 55.261719 20.71875 C 53.609375 20.21875 51.980469 19.664062 50.371094 19.046875 C 48.761719 18.433594 47.175781 17.761719 45.617188 17.03125 C 44.054688 16.304688 42.519531 15.523438 41.015625 14.683594 C 39.507812 13.847656 38.035156 12.957031 36.59375 12.015625 C 35.152344 11.070312 33.746094 10.078125 32.375 9.035156 C 31.003906 7.992188 29.671875 6.898438 28.375 5.761719 C 27.082031 4.625 25.832031 3.441406 24.621094 2.214844 C 24.5 2.089844 24.371094 1.96875 24.242188 1.851562 C 24.109375 1.734375 23.976562 1.621094 23.839844 1.515625 C 23.703125 1.40625 23.5625 1.300781 23.417969 1.199219 C 23.273438 1.101562 23.125 1.003906 22.976562 0.914062 C 22.824219 0.824219 22.671875 0.738281 22.519531 0.65625 C 22.363281 0.574219 22.207031 0.496094 22.046875 0.425781 C 21.886719 0.355469 21.722656 0.285156 21.558594 0.226562 C 21.394531 0.164062 21.230469 0.105469 21.0625 0.0546875 C 20.894531 0.00390625 20.726562 -0.0429688 20.554688 -0.0859375 C 20.386719 -0.128906 20.214844 -0.164062 20.042969 -0.195312 C 19.871094 -0.226562 19.695312 -0.25 19.523438 -0.273438 C 19.347656 -0.292969 19.171875 -0.308594 18.996094 -0.316406 C 18.824219 -0.328125 18.648438 -0.332031 18.472656 -0.332031 C 18.296875 -0.328125 18.121094 -0.324219 17.945312 -0.3125 C 17.773438 -0.300781 17.597656 -0.28125 17.421875 -0.261719 C 17.25 -0.238281 17.078125 -0.210938 16.90625 -0.175781 C 16.734375 -0.144531 16.5625 -0.105469 16.390625 -0.0625 C 16.222656 -0.0195312 16.054688 0.03125 15.886719 0.0820312 C 15.71875 0.136719 15.554688 0.195312 15.390625 0.257812 C 15.226562 0.324219 15.066406 0.390625 14.90625 0.464844 C 14.75 0.539062 14.59375 0.617188 14.4375 0.703125 C 14.285156 0.785156 14.132812 0.871094 13.984375 0.964844 C 13.835938 1.058594 13.6875 1.15625 13.546875 1.257812 C 13.402344 1.359375 13.261719 1.464844 13.125 1.574219 C 12.992188 1.683594 12.855469 1.796875 12.726562 1.917969 C 12.597656 2.035156 12.472656 2.15625 12.351562 2.28125 C 12.230469 2.410156 12.113281 2.539062 11.996094 2.671875 C 11.882812 2.804688 11.773438 2.941406 11.667969 3.082031 C 11.5625 3.222656 11.460938 3.363281 11.363281 3.507812 C 11.265625 3.65625 11.175781 3.804688 11.085938 3.957031 C 11 4.109375 10.914062 4.261719 10.835938 4.417969 C 10.757812 4.574219 10.6875 4.734375 10.617188 4.898438 C 9.835938 6.734375 9.128906 8.601562 8.5 10.5 C 7.875 12.398438 7.324219 14.316406 6.855469 16.257812 C 6.386719 18.203125 6 20.160156 5.691406 22.136719 C 5.382812 24.109375 5.160156 26.09375 5.015625 28.085938 C 4.875 30.082031 4.816406 32.074219 4.835938 34.074219 C 4.859375 36.074219 4.964844 38.066406 5.152344 40.054688 C 5.339844 42.046875 5.609375 44.023438 5.960938 45.992188 C 6.3125 47.957031 6.746094 49.90625 7.257812 51.839844 C 7.320312 52.074219 7.390625 52.308594 7.472656 52.539062 C 7.558594 52.769531 7.648438 52.996094 7.75 53.21875 C 7.851562 53.441406 7.964844 53.65625 8.085938 53.871094 C 8.203125 54.082031 8.332031 54.289062 8.472656 54.492188 C 8.609375 54.695312 8.753906 54.890625 8.910156 55.082031 C 9.0625 55.269531 9.226562 55.453125 9.394531 55.628906 C 9.566406 55.804688 9.742188 55.972656 9.925781 56.132812 C 10.113281 56.292969 10.300781 56.449219 10.5 56.589844 C 10.695312 56.734375 10.898438 56.871094 11.105469 57 C 11.316406 57.128906 11.53125 57.246094 11.75 57.355469 C 11.96875 57.464844 12.191406 57.566406 12.417969 57.65625 C 12.644531 57.746094 12.875 57.828125 13.109375 57.898438 C 13.34375 57.96875 13.578125 58.027344 13.820312 58.078125 C 14.058594 58.128906 14.296875 58.171875 14.542969 58.203125 C 14.785156 58.230469 15.027344 58.253906 15.273438 58.261719 C 15.515625 58.273438 15.761719 58.269531 16.003906 58.261719 C 18.71875 58.132812 21.414062 57.855469 24.09375 57.425781 C 26.777344 56.992188 29.425781 56.414062 32.039062 55.683594 C 34.65625 54.953125 37.222656 54.078125 39.738281 53.054688 C 42.253906 52.035156 44.707031 50.878906 47.089844 49.578125 C 50.316406 47.835938 53.394531 45.855469 56.320312 43.644531 C 59.246094 41.433594 61.984375 39.011719 64.542969 36.382812 C 64.804688 36.109375 65.046875 35.816406 65.269531 35.511719 C 65.492188 35.207031 65.691406 34.886719 65.875 34.554688 C 66.054688 34.222656 66.210938 33.878906 66.347656 33.527344 C 66.484375 33.171875 66.59375 32.8125 66.683594 32.445312 C 66.769531 32.078125 66.835938 31.707031 66.875 31.328125 C 66.914062 30.953125 66.925781 30.578125 66.917969 30.199219 C 66.90625 29.820312 66.871094 29.445312 66.8125 29.070312 C 66.75 28.699219 66.667969 28.328125 66.558594 27.96875 C 66.449219 27.605469 66.316406 27.25 66.164062 26.90625 C 66.007812 26.5625 65.832031 26.226562 65.632812 25.90625 C 65.433594 25.585938 65.214844 25.277344 64.976562 24.984375 C 64.734375 24.691406 64.476562 24.414062 64.203125 24.15625 C 63.925781 23.898438 63.636719 23.65625 63.328125 23.4375 C 63.019531 23.21875 62.699219 23.015625 62.367188 22.839844 C 62.035156 22.660156 61.691406 22.503906 61.335938 22.371094 C 60.984375 22.238281 60.621094 22.128906 60.253906 22.042969 M 36.046875 43.871094 C 34.019531 44.972656 31.90625 45.882812 29.710938 46.601562 C 27.515625 47.316406 25.273438 47.832031 22.980469 48.136719 C 22.738281 48.171875 22.496094 48.191406 22.253906 48.203125 C 22.007812 48.210938 21.761719 48.210938 21.519531 48.195312 C 21.273438 48.183594 21.03125 48.15625 20.789062 48.121094 C 20.550781 48.082031 20.308594 48.035156 20.074219 47.972656 C 19.835938 47.914062 19.601562 47.84375 19.371094 47.761719 C 19.140625 47.679688 18.914062 47.585938 18.695312 47.480469 C 18.472656 47.378906 18.257812 47.261719 18.046875 47.140625 C 17.835938 47.015625 17.632812 46.878906 17.433594 46.734375 C 17.238281 46.59375 17.046875 46.4375 16.863281 46.277344 C 16.679688 46.113281 16.507812 45.941406 16.339844 45.761719 C 16.171875 45.585938 16.015625 45.398438 15.867188 45.203125 C 15.71875 45.007812 15.578125 44.808594 15.449219 44.601562 C 15.320312 44.394531 15.203125 44.179688 15.09375 43.960938 C 14.984375 43.742188 14.886719 43.519531 14.796875 43.289062 C 14.710938 43.0625 14.632812 42.828125 14.570312 42.59375 C 14.503906 42.359375 14.449219 42.121094 14.40625 41.878906 C 14.203125 40.714844 14.054688 39.542969 13.960938 38.363281 C 13.863281 37.183594 13.824219 36.003906 13.839844 34.820312 C 13.855469 33.636719 13.925781 32.457031 14.050781 31.28125 C 14.175781 30.105469 14.355469 28.933594 14.589844 27.777344 C 14.824219 26.617188 15.109375 25.46875 15.453125 24.335938 C 15.792969 23.203125 16.183594 22.089844 16.628906 20.992188 C 17.074219 19.894531 17.566406 18.820312 18.109375 17.769531 C 18.65625 16.71875 19.246094 15.699219 19.886719 14.703125 C 19.378906 16.25 18.960938 17.820312 18.640625 19.417969 C 18.320312 21.011719 18.09375 22.621094 17.964844 24.246094 C 17.835938 25.867188 17.804688 27.492188 17.871094 29.121094 C 17.9375 30.746094 18.097656 32.363281 18.355469 33.972656 C 18.40625 34.253906 18.46875 34.53125 18.546875 34.808594 C 18.625 35.082031 18.714844 35.355469 18.816406 35.621094 C 18.921875 35.886719 19.035156 36.148438 19.164062 36.40625 C 19.292969 36.660156 19.433594 36.910156 19.585938 37.152344 C 19.738281 37.394531 19.902344 37.625 20.078125 37.851562 C 20.253906 38.078125 20.441406 38.292969 20.636719 38.503906 C 20.835938 38.710938 21.039062 38.90625 21.257812 39.09375 C 21.472656 39.28125 21.695312 39.460938 21.929688 39.625 C 22.164062 39.792969 22.40625 39.945312 22.652344 40.085938 C 22.898438 40.230469 23.15625 40.359375 23.414062 40.476562 C 23.675781 40.59375 23.941406 40.699219 24.214844 40.792969 C 24.484375 40.882812 24.757812 40.960938 25.039062 41.027344 C 25.316406 41.089844 25.597656 41.144531 25.878906 41.179688 C 26.164062 41.21875 26.449219 41.242188 26.734375 41.25 C 27.019531 41.261719 27.304688 41.257812 27.59375 41.238281 C 27.878906 41.222656 28.160156 41.191406 28.445312 41.144531 C 30.761719 40.785156 33.03125 40.230469 35.253906 39.480469 C 37.476562 38.730469 39.617188 37.796875 41.679688 36.675781 C 44.804688 34.980469 47.664062 32.914062 50.253906 30.476562 C 49.386719 31.878906 48.429688 33.214844 47.386719 34.492188 C 46.34375 35.769531 45.226562 36.972656 44.023438 38.105469 C 42.824219 39.234375 41.558594 40.28125 40.222656 41.25 C 38.886719 42.214844 37.492188 43.085938 36.042969 43.871094 " fill-opacity="1" fill-rule="nonzero"/></g><g fill="#ffffff" fill-opacity="1"><g transform="translate(67.42053, 41.970624)"><g><path d="M 13.265625 0.375 C 11.585938 0.375 10.039062 0.0703125 8.625 -0.53125 C 7.21875 -1.144531 5.984375 -1.992188 4.921875 -3.078125 C 3.859375 -4.171875 3.035156 -5.453125 2.453125 -6.921875 C 1.867188 -8.390625 1.578125 -9.992188 1.578125 -11.734375 C 1.578125 -13.472656 1.863281 -15.082031 2.4375 -16.5625 C 3.007812 -18.039062 3.828125 -19.316406 4.890625 -20.390625 C 5.953125 -21.472656 7.191406 -22.3125 8.609375 -22.90625 C 10.035156 -23.507812 11.585938 -23.8125 13.265625 -23.8125 C 14.953125 -23.8125 16.457031 -23.523438 17.78125 -22.953125 C 19.113281 -22.390625 20.238281 -21.640625 21.15625 -20.703125 C 22.082031 -19.773438 22.75 -18.753906 23.15625 -17.640625 L 19.3125 -15.859375 C 18.875 -17.023438 18.128906 -17.988281 17.078125 -18.75 C 16.023438 -19.519531 14.753906 -19.90625 13.265625 -19.90625 C 11.804688 -19.90625 10.515625 -19.554688 9.390625 -18.859375 C 8.265625 -18.171875 7.390625 -17.21875 6.765625 -16 C 6.148438 -14.789062 5.84375 -13.367188 5.84375 -11.734375 C 5.84375 -10.097656 6.148438 -8.664062 6.765625 -7.4375 C 7.390625 -6.207031 8.265625 -5.242188 9.390625 -4.546875 C 10.515625 -3.859375 11.804688 -3.515625 13.265625 -3.515625 C 14.753906 -3.515625 16.023438 -3.894531 17.078125 -4.65625 C 18.128906 -5.425781 18.875 -6.398438 19.3125 -7.578125 L 23.15625 -5.78125 C 22.75 -4.675781 22.082031 -3.65625 21.15625 -2.71875 C 20.238281 -1.789062 19.113281 -1.039062 17.78125 -0.46875 C 16.457031 0.09375 14.953125 0.375 13.265625 0.375 Z M 13.265625 0.375 "/></g></g></g><g fill="#ffffff" fill-opacity="1"><g transform="translate(91.760545, 41.970624)"><g><path d="M 2.265625 0 L 2.265625 -23.4375 L 6.546875 -23.4375 L 6.546875 -13.203125 L 16.515625 -13.203125 L 16.515625 -23.4375 L 20.828125 -23.4375 L 20.828125 0 L 16.515625 0 L 16.515625 -9.4375 L 6.546875 -9.4375 L 6.546875 0 Z M 2.265625 0 "/></g></g></g><g fill="#ffffff" fill-opacity="1"><g transform="translate(114.811237, 41.970624)"><g><path d="M 0.34375 0 L 8.421875 -23.4375 L 13.96875 -23.4375 L 22.046875 0 L 17.390625 0 L 15.734375 -5.03125 L 6.671875 -5.03125 L 4.96875 0 Z M 7.890625 -8.8125 L 14.5 -8.8125 L 10.59375 -20.46875 L 11.796875 -20.46875 Z M 7.890625 -8.8125 "/></g></g></g><g fill="#ffffff" fill-opacity="1"><g transform="translate(137.201534, 41.970624)"><g><path d="M 2.265625 0 L 2.265625 -23.4375 L 5.59375 -23.4375 L 18.5 -6.078125 L 16.765625 -5.71875 L 16.765625 -23.4375 L 21.046875 -23.4375 L 21.046875 0 L 17.671875 0 L 4.96875 -17.484375 L 6.546875 -17.828125 L 6.546875 0 Z M 2.265625 0 "/></g></g></g><g fill="#ffffff" fill-opacity="1"><g transform="translate(160.503798, 41.970624)"><g><path d="M 2.265625 0 L 2.265625 -23.4375 L 6.359375 -23.4375 L 15.125 -11.515625 L 13.171875 -11.515625 L 21.765625 -23.4375 L 25.859375 -23.4375 L 25.859375 0 L 21.546875 0 L 21.546875 -18.5625 L 23.21875 -18.15625 L 14.3125 -6.296875 L 13.8125 -6.296875 L 5.125 -18.15625 L 6.546875 -18.5625 L 6.546875 0 Z M 2.265625 0 "/></g></g></g><g fill="#ffffff" fill-opacity="1"><g transform="translate(188.586012, 41.970624)"><g><path d="M 0.34375 0 L 8.421875 -23.4375 L 13.96875 -23.4375 L 22.046875 0 L 17.390625 0 L 15.734375 -5.03125 L 6.671875 -5.03125 L 4.96875 0 Z M 7.890625 -8.8125 L 14.5 -8.8125 L 10.59375 -20.46875 L 11.796875 -20.46875 Z M 7.890625 -8.8125 "/></g></g></g><g fill="#ffffff" fill-opacity="1"><g transform="translate(210.976309, 41.970624)"><g><path d="M 0.34375 0 L 8.015625 -11.796875 L 0.40625 -23.4375 L 5.3125 -23.4375 L 11.546875 -13.90625 L 9.28125 -13.90625 L 15.46875 -23.4375 L 20.375 -23.4375 L 12.796875 -11.796875 L 20.4375 0 L 15.53125 0 L 9.28125 -9.65625 L 11.546875 -9.65625 L 5.25 0 Z M 0.34375 0 "/></g></g></g></svg>