<svg xmlns="http://www.w3.org/2000/svg" xmlns:xlink="http://www.w3.org/1999/xlink" width="100" zoomAndPan="magnify" viewBox="0 0 75 74.999997" height="100" preserveAspectRatio="xMidYMid meet" version="1.0"><defs><clipPath id="5e84f69474"><path d="M 37.5 0 C 16.789062 0 0 16.789062 0 37.5 C 0 58.210938 16.789062 75 37.5 75 C 58.210938 75 75 58.210938 75 37.5 C 75 16.789062 58.210938 0 37.5 0 Z M 37.5 0 " clip-rule="nonzero"/></clipPath><clipPath id="f6a9cdc9c5"><path d="M 14.878906 17.304688 L 64.378906 17.304688 L 64.378906 60.804688 L 14.878906 60.804688 Z M 14.878906 17.304688 " clip-rule="nonzero"/></clipPath></defs><g clip-path="url(#5e84f69474)"><rect x="-7.5" width="90" fill="#ffd100" y="-7.5" height="89.999996" fill-opacity="1"/></g><path fill="#080808" d="M 27.5 60.308594 C 27.21875 60.308594 26.941406 60.296875 26.660156 60.273438 C 26.382812 60.25 26.105469 60.210938 25.832031 60.164062 C 25.554688 60.117188 25.285156 60.054688 25.015625 59.984375 C 24.746094 59.910156 24.476562 59.828125 24.214844 59.730469 C 23.953125 59.636719 23.695312 59.527344 23.441406 59.410156 C 23.1875 59.292969 22.941406 59.164062 22.699219 59.023438 C 22.457031 58.882812 22.222656 58.734375 21.992188 58.574219 C 21.765625 58.414062 21.542969 58.242188 21.328125 58.0625 C 21.117188 57.882812 20.910156 57.695312 20.710938 57.496094 C 20.515625 57.300781 20.328125 57.09375 20.148438 56.878906 C 19.96875 56.664062 19.796875 56.445312 19.640625 56.214844 C 19.480469 55.984375 19.328125 55.75 19.191406 55.507812 C 19.050781 55.265625 18.921875 55.019531 18.804688 54.765625 C 18.6875 54.511719 18.582031 54.253906 18.484375 53.992188 C 18.390625 53.726562 18.304688 53.460938 18.234375 53.191406 C 18.164062 52.921875 18.101562 52.648438 18.054688 52.375 C 17.539062 49.4375 17.300781 46.480469 17.34375 43.5 C 17.382812 40.519531 17.699219 37.570312 18.296875 34.652344 C 18.886719 31.75 19.738281 28.925781 20.851562 26.183594 C 21.964844 23.4375 23.320312 20.820312 24.921875 18.328125 C 24.285156 20.265625 23.761719 22.238281 23.359375 24.238281 C 22.957031 26.238281 22.675781 28.253906 22.515625 30.289062 C 22.351562 32.320312 22.3125 34.355469 22.390625 36.394531 C 22.472656 38.433594 22.675781 40.460938 22.996094 42.476562 C 23.054688 42.792969 23.125 43.105469 23.207031 43.417969 C 23.292969 43.730469 23.390625 44.035156 23.5 44.335938 C 23.613281 44.640625 23.734375 44.9375 23.871094 45.230469 C 24.007812 45.519531 24.160156 45.804688 24.320312 46.082031 C 24.480469 46.363281 24.65625 46.632812 24.839844 46.898438 C 25.027344 47.160156 25.222656 47.414062 25.429688 47.660156 C 25.640625 47.90625 25.855469 48.144531 26.085938 48.371094 C 26.3125 48.597656 26.550781 48.816406 26.800781 49.019531 C 27.046875 49.226562 27.300781 49.421875 27.566406 49.605469 C 27.832031 49.792969 28.101562 49.964844 28.382812 50.125 C 28.660156 50.285156 28.949219 50.433594 29.238281 50.566406 C 29.53125 50.703125 29.828125 50.824219 30.132812 50.933594 C 30.4375 51.042969 30.742188 51.140625 31.054688 51.222656 C 31.367188 51.304688 31.679688 51.375 31.996094 51.429688 C 32.316406 51.484375 32.632812 51.523438 32.953125 51.550781 C 33.277344 51.578125 33.597656 51.59375 33.917969 51.589844 C 34.492188 51.589844 35.066406 51.546875 35.632812 51.460938 C 38.535156 51.011719 41.378906 50.316406 44.164062 49.378906 C 46.949219 48.4375 49.628906 47.265625 52.210938 45.863281 C 56.128906 43.742188 59.710938 41.152344 62.953125 38.09375 C 60.808594 41.5625 58.257812 44.699219 55.304688 47.507812 C 52.246094 50.410156 48.863281 52.867188 45.152344 54.875 C 42.574219 56.273438 39.886719 57.429688 37.09375 58.335938 C 34.382812 59.214844 31.613281 59.84375 28.789062 60.222656 C 28.359375 60.28125 27.929688 60.308594 27.5 60.308594 Z M 27.5 60.308594 " fill-opacity="1" fill-rule="nonzero"/><g clip-path="url(#f6a9cdc9c5)"><path fill="#ffd100" d="M 75.480469 27.523438 C 73.375 27.050781 71.289062 26.5 69.222656 25.875 C 67.15625 25.25 65.117188 24.550781 63.101562 23.78125 C 61.085938 23.011719 59.097656 22.167969 57.140625 21.257812 C 55.1875 20.34375 53.265625 19.363281 51.378906 18.3125 C 49.492188 17.265625 47.648438 16.148438 45.839844 14.96875 C 44.035156 13.789062 42.273438 12.542969 40.554688 11.238281 C 38.835938 9.929688 37.167969 8.5625 35.546875 7.136719 C 33.925781 5.710938 32.359375 4.230469 30.84375 2.691406 C 30.691406 2.535156 30.53125 2.386719 30.367188 2.238281 C 30.203125 2.09375 30.035156 1.953125 29.863281 1.816406 C 29.691406 1.679688 29.515625 1.550781 29.332031 1.421875 C 29.152344 1.296875 28.96875 1.179688 28.78125 1.066406 C 28.59375 0.953125 28.402344 0.84375 28.207031 0.742188 C 28.011719 0.640625 27.816406 0.542969 27.617188 0.453125 C 27.414062 0.363281 27.214844 0.277344 27.007812 0.199219 C 26.800781 0.125 26.59375 0.0507812 26.382812 -0.0117188 C 26.175781 -0.078125 25.964844 -0.136719 25.75 -0.1875 C 25.535156 -0.242188 25.320312 -0.285156 25.105469 -0.324219 C 24.890625 -0.363281 24.671875 -0.394531 24.453125 -0.421875 C 24.238281 -0.449219 24.019531 -0.464844 23.796875 -0.476562 C 23.578125 -0.492188 23.359375 -0.496094 23.140625 -0.496094 C 22.921875 -0.492188 22.703125 -0.484375 22.480469 -0.472656 C 22.261719 -0.457031 22.042969 -0.433594 21.828125 -0.40625 C 21.609375 -0.378906 21.390625 -0.34375 21.175781 -0.304688 C 20.960938 -0.261719 20.746094 -0.214844 20.535156 -0.160156 C 20.320312 -0.105469 20.109375 -0.0429688 19.902344 0.0234375 C 19.691406 0.0898438 19.484375 0.164062 19.28125 0.246094 C 19.078125 0.324219 18.875 0.410156 18.675781 0.503906 C 18.476562 0.59375 18.28125 0.695312 18.085938 0.796875 C 17.894531 0.902344 17.703125 1.011719 17.515625 1.128906 C 17.332031 1.246094 17.148438 1.367188 16.96875 1.492188 C 16.789062 1.621094 16.613281 1.753906 16.445312 1.890625 C 16.273438 2.027344 16.105469 2.171875 15.945312 2.320312 C 15.78125 2.46875 15.625 2.621094 15.472656 2.777344 C 15.320312 2.9375 15.171875 3.097656 15.027344 3.265625 C 14.886719 3.433594 14.75 3.601562 14.617188 3.777344 C 14.484375 3.953125 14.355469 4.132812 14.234375 4.316406 C 14.113281 4.5 13.996094 4.683594 13.886719 4.875 C 13.777344 5.066406 13.675781 5.257812 13.574219 5.457031 C 13.476562 5.652344 13.386719 5.851562 13.300781 6.054688 C 12.320312 8.355469 11.4375 10.695312 10.648438 13.074219 C 9.863281 15.449219 9.175781 17.855469 8.585938 20.289062 C 8 22.722656 7.515625 25.175781 7.128906 27.648438 C 6.746094 30.121094 6.464844 32.605469 6.285156 35.105469 C 6.105469 37.601562 6.03125 40.101562 6.058594 42.605469 C 6.085938 45.109375 6.21875 47.605469 6.453125 50.097656 C 6.6875 52.589844 7.027344 55.066406 7.46875 57.53125 C 7.90625 59.996094 8.449219 62.4375 9.089844 64.859375 C 9.167969 65.152344 9.261719 65.445312 9.363281 65.734375 C 9.46875 66.023438 9.582031 66.304688 9.710938 66.585938 C 9.835938 66.863281 9.976562 67.136719 10.128906 67.402344 C 10.277344 67.667969 10.4375 67.929688 10.613281 68.183594 C 10.785156 68.433594 10.96875 68.679688 11.160156 68.917969 C 11.355469 69.15625 11.558594 69.382812 11.769531 69.605469 C 11.984375 69.824219 12.203125 70.035156 12.433594 70.238281 C 12.667969 70.4375 12.90625 70.628906 13.152344 70.8125 C 13.398438 70.992188 13.652344 71.164062 13.914062 71.324219 C 14.175781 71.480469 14.441406 71.628906 14.71875 71.769531 C 14.992188 71.90625 15.269531 72.03125 15.554688 72.144531 C 15.839844 72.257812 16.128906 72.359375 16.421875 72.445312 C 16.714844 72.535156 17.011719 72.613281 17.308594 72.675781 C 17.609375 72.738281 17.910156 72.789062 18.214844 72.828125 C 18.519531 72.867188 18.824219 72.890625 19.128906 72.902344 C 19.4375 72.914062 19.742188 72.914062 20.046875 72.902344 C 23.445312 72.742188 26.824219 72.394531 30.183594 71.855469 C 33.542969 71.3125 36.859375 70.585938 40.136719 69.671875 C 43.414062 68.757812 46.628906 67.660156 49.78125 66.382812 C 52.933594 65.105469 56.003906 63.652344 58.992188 62.027344 C 63.03125 59.839844 66.886719 57.363281 70.550781 54.589844 C 74.214844 51.820312 77.648438 48.789062 80.851562 45.496094 C 81.179688 45.152344 81.480469 44.789062 81.761719 44.40625 C 82.039062 44.023438 82.292969 43.621094 82.519531 43.207031 C 82.746094 42.789062 82.941406 42.359375 83.113281 41.917969 C 83.28125 41.476562 83.421875 41.023438 83.53125 40.5625 C 83.644531 40.101562 83.722656 39.636719 83.773438 39.164062 C 83.820312 38.695312 83.839844 38.222656 83.824219 37.75 C 83.8125 37.273438 83.769531 36.804688 83.691406 36.335938 C 83.617188 35.867188 83.511719 35.40625 83.375 34.953125 C 83.242188 34.5 83.074219 34.058594 82.882812 33.625 C 82.6875 33.191406 82.464844 32.773438 82.214844 32.371094 C 81.96875 31.96875 81.691406 31.585938 81.394531 31.21875 C 81.09375 30.851562 80.769531 30.503906 80.425781 30.179688 C 80.082031 29.855469 79.714844 29.554688 79.332031 29.28125 C 78.945312 29.003906 78.542969 28.753906 78.128906 28.53125 C 77.710938 28.304688 77.277344 28.109375 76.835938 27.945312 C 76.390625 27.777344 75.941406 27.640625 75.476562 27.53125 M 45.15625 54.875 C 42.617188 56.257812 39.96875 57.398438 37.21875 58.296875 C 34.46875 59.195312 31.65625 59.835938 28.789062 60.222656 C 28.484375 60.261719 28.179688 60.289062 27.875 60.300781 C 27.570312 60.3125 27.261719 60.3125 26.957031 60.292969 C 26.652344 60.277344 26.347656 60.246094 26.042969 60.199219 C 25.742188 60.152344 25.441406 60.089844 25.144531 60.015625 C 24.847656 59.941406 24.554688 59.851562 24.265625 59.75 C 23.976562 59.644531 23.695312 59.53125 23.417969 59.398438 C 23.140625 59.269531 22.871094 59.125 22.605469 58.96875 C 22.34375 58.8125 22.085938 58.644531 21.839844 58.464844 C 21.59375 58.285156 21.355469 58.09375 21.125 57.886719 C 20.894531 57.683594 20.675781 57.472656 20.46875 57.246094 C 20.261719 57.023438 20.0625 56.789062 19.875 56.546875 C 19.691406 56.300781 19.515625 56.050781 19.355469 55.789062 C 19.191406 55.53125 19.042969 55.261719 18.90625 54.988281 C 18.769531 54.714844 18.648438 54.433594 18.539062 54.148438 C 18.425781 53.863281 18.332031 53.570312 18.25 53.277344 C 18.167969 52.980469 18.101562 52.683594 18.046875 52.382812 C 17.792969 50.921875 17.605469 49.453125 17.488281 47.976562 C 17.367188 46.5 17.320312 45.019531 17.339844 43.535156 C 17.359375 42.054688 17.445312 40.578125 17.601562 39.101562 C 17.757812 37.628906 17.984375 36.167969 18.277344 34.714844 C 18.570312 33.261719 18.929688 31.824219 19.355469 30.40625 C 19.78125 28.984375 20.273438 27.589844 20.832031 26.214844 C 21.386719 24.84375 22.007812 23.496094 22.6875 22.179688 C 23.371094 20.863281 24.109375 19.582031 24.910156 18.335938 C 24.273438 20.273438 23.753906 22.242188 23.351562 24.242188 C 22.949219 26.242188 22.667969 28.257812 22.503906 30.292969 C 22.34375 32.324219 22.304688 34.359375 22.386719 36.398438 C 22.46875 38.4375 22.671875 40.460938 22.996094 42.476562 C 23.058594 42.828125 23.136719 43.175781 23.234375 43.523438 C 23.328125 43.867188 23.441406 44.207031 23.570312 44.542969 C 23.703125 44.875 23.847656 45.203125 24.007812 45.523438 C 24.167969 45.84375 24.34375 46.15625 24.535156 46.457031 C 24.726562 46.761719 24.933594 47.054688 25.152344 47.335938 C 25.375 47.621094 25.605469 47.890625 25.851562 48.152344 C 26.097656 48.410156 26.359375 48.660156 26.628906 48.894531 C 26.898438 49.128906 27.179688 49.351562 27.472656 49.558594 C 27.765625 49.765625 28.066406 49.957031 28.375 50.136719 C 28.6875 50.316406 29.003906 50.476562 29.332031 50.625 C 29.660156 50.773438 29.992188 50.902344 30.332031 51.019531 C 30.671875 51.132812 31.015625 51.230469 31.363281 51.3125 C 31.714844 51.394531 32.066406 51.457031 32.421875 51.503906 C 32.777344 51.550781 33.132812 51.582031 33.492188 51.59375 C 33.847656 51.605469 34.207031 51.601562 34.5625 51.578125 C 34.921875 51.558594 35.277344 51.515625 35.632812 51.460938 C 38.535156 51.011719 41.378906 50.316406 44.160156 49.378906 C 46.945312 48.4375 49.628906 47.265625 52.210938 45.863281 C 56.128906 43.742188 59.707031 41.152344 62.949219 38.09375 C 61.863281 39.851562 60.667969 41.527344 59.363281 43.128906 C 58.054688 44.726562 56.652344 46.234375 55.148438 47.652344 C 53.648438 49.070312 52.058594 50.382812 50.386719 51.589844 C 48.710938 52.800781 46.964844 53.894531 45.148438 54.875 " fill-opacity="1" fill-rule="nonzero"/></g></svg>