<?xml version="1.0" encoding="UTF-8"?>
<svg id="Layer_1" data-name="Layer 1" xmlns="http://www.w3.org/2000/svg" viewBox="0 0 613.02 1080.55">
  <defs>
    <style>
      .cls-1 {
        fill: #ee3135;
      }

      .cls-1, .cls-2 {
        stroke: #fff;
        stroke-width: .5px;
      }

      .cls-2 {
        fill: #ccc;
      }
    </style>
  </defs>
  <path id="LK-11" class="cls-2" d="M60.57,789.32l3.55.1-1.16,5.29,1.6,1.05,4.19-.46-.86,1.19,1,1.12,2.86-.91,1.58,1.24,1.7-1.75,1.2,1.06,2.2-.37,2.7,3.18,3.22-1.21,8.44,2.05,2.11-2.25,1.99.53,3.59-1.19-.15,1.83,1.81,4.04,2.69.34,8.24,4.46,1.32-1.6,2.71,1.45.94-.85,4.15-.19.16-7.32,1.31-3.75,1.95-.68,1.02-2.48,3.25-.72.61-2.28,11.66,1.1,1.09-2.56,2.54.42h0l1.4.97,1.47-1.01,2.8.63,2.07-.83,2.96,1.6-.11,4.39,1.43,1.98.05,2.18-1.01,1.64-3.25-.44.57,5.47h0l-2.9,2.55.37,1.3-1.32-.16-1.46,1.32-.03,1.84-1.94,1.72-.6,5.18-1.21,2.33,3.56.85,1.31,1.45,2.06,5.22.1,3.97-1.15,1.04-5.17.03h0l-1.4-1.57-2.82,1.2-1.49-2.22-2.55-.53-9.05,5.17,2.18,6.56-.15,2.35-1.02.86-3.16-.53-2.92-6.12-.08-2.44-1.38-.75-.45-2.21-2.48-.75-1.53.59-2.32,5.3-1.61,1.53-3.76-1.4-1.68-2.37-1.62-.55-2.66,4.06-3.46,1.09.57.91-1.94,1.76-1.15-.1-.3,1.91-1.81.14-5.17,3.37-2.62-.74-2.73.72-2.2-1.23-.82,3.35-.97.57-6.8-.14-.8-.91.5-1.51-1.57-1.83-6.75-3.18-.68,1.08,1.96,2.47,2.82,10.69-.33,2.4h0l-6.18-15.04-4.58-14.36-1.58-14.21-4.45-15.72.91-6.11.91,3.97,2.06-4.43-.53-1.68,2.97-1.06,1.43-3.41Z"/>
  <path id="LK-12" class="cls-2" d="M80.29,707.57l1.04.48.37-1.7,2.15-.33-1.25-1.4.23-1.08h1.4l.12-1.02,2.59,1.32,2.78-.94,1.01-2.14,3.65-.9-1.64-.79,4.23-2.14.86-1.68,2.24,1.62,3.34-.79-.91,1.43,1.45.89.38,1.68,1.96-.45,2.4.98,2.17,4.17,1.73.16,5.69-3.4.78-2.1,5.03-1.96,6.5-5.36,6.57,5.26-1.36,2.03.65,1.32,6.19,4.5,4.13,6.38,1.45-.63,1.4,1.32h0l1.35,3.48-4.12,2.97.74,3.7-.61,7.47-5.96.3-1.49,2.62-3.19-1.3,2.37,3.48-.1,7.4,2.32,6.7,3.29-2.78,7.76-.2,1.7,1.34-.18,2.29-2.36,1.7-1.47,3.98-2.35-.11-3.2,8.28-2.59,3.34,2.73,13.43,2.29,4.16-.82,4.65h0l-2.54-.42-1.09,2.56-11.66-1.1-.61,2.28-3.25.72-1.02,2.48-1.95.68-1.31,3.75-.16,7.32-4.15.19-.94.85-2.71-1.45-1.32,1.6-8.24-4.46-2.69-.34-1.81-4.04.15-1.83-3.59,1.19-1.99-.53-2.11,2.25-8.44-2.05-3.22,1.21-2.7-3.18-2.2.37-1.2-1.06-1.7,1.75-1.58-1.24-2.86.91-1-1.12.86-1.19-4.19.46-1.6-1.05,1.16-5.29-3.55-.1h0l-.38-6.64-14.05-55.19.53-1.45,1.83-.3,1.38,1.91-2.06,5.35,2.59,8.41,1.68,1.61.08,4.13,2.37,2.9-.61,2.29,1.76,1.3,1.91-1.3,1-3.82v2.37l1.38,1.3,1.23-2.37-1.53-12.91-4.96-8.63-2.82,1.3-.29,1.57-.38-.68-.85.68.08-3.29-1.15-1.83,2.97-4.75.85-12.76,2.06-.23-1.61-.52h0l1.81.14,1.15-1.08,1.99,1.91,3.93-3.63,3.48,2.54,2.28-.29.55-1.55,1.49,1.43,1.3-1.3-.7,3.64,2.13-.63-.07-1.99,2.71-.41.42-1.3,4.28,2.28Z"/>
  <path id="LK-13" class="cls-2" d="M69.58,861.36l.33-2.4-2.82-10.69-1.96-2.47.68-1.08,6.75,3.18,1.57,1.83-.5,1.51.8.91,6.8.14.97-.57.82-3.35,2.2,1.23,2.73-.72,2.62.74,5.17-3.37,1.81-.14.3-1.91,1.15.1,1.94-1.76-.57-.91,3.46-1.09,2.66-4.06,1.62.55,1.68,2.37,3.76,1.4,1.61-1.53,2.32-5.3,1.53-.59,2.48.75.45,2.21,1.38.75.08,2.44,2.92,6.12,3.16.53,1.02-.86.15-2.35-2.18-6.56,9.05-5.17,2.55.53,1.49,2.22,2.82-1.2,1.4,1.57h0l-.48,1.51,1.21,3.4,2.6,3.52.07,6.16,3.72,7.58-.11.86-1.73-.35v1.06s2.92,4.54,2.92,4.54l1.57,5.24,1.75.67,1.45,2.86,4.05,2.37,2.07,3.33.6,2.97-.68,2.32,1.66,3.33,1.4,1.36,6.03,1.17,5.75,5.97,2.86,7.04-1.17-.27-4.05,2.5,3.01,4.72-.15,1.15,19.15,26.36,2.06,5.22h0l-1.49-.76-2.3.41-2.97,2.28-1.49-.23-5.09,2.47-5.78,3.94-3.22-.15-2.74,1.35.8,8.15h0l.68,2.36h0l1.66,3.68-1.01,4.24-1.23-.4-4.98-6.2-2.14-.46-6.34-6.27-2.18-1.01-5.77-.75-.95,2.36-1.42-.25.07,3.59-4.55,1.36-9.97-3.42-6.44.25-2.13-1.3-3.22-4.45-6.56-3.98-4.65,1.19-2.48-3.04-6.29-3.16-2.86-.1-1.36-3.18-2.17-1.16-2.32-.05-.93,1.98-1.54.68-2.65-3.7h0l-2.67-2.6-1.38-3.05-.23-2.9,2.52-2.14.08-2.52-1.91-4.73,1.38-1.06-.45-2.44-5.5-13.81-3.9-13.13-7.21-17.36-4.12-7.4-.38-2.67Z"/>
  <path id="LK-21" class="cls-2" d="M251.86,657.15l1.73,1.08.34,3.64,1.57.48,2.44,2.88,1.57.03,1.77,2.07,4.02,1.73,2.8,3.44,4.5,1.46,3.56,3.3,4.73.15,7.46-.8,2.1-2.26.2-5.21,1.49-3.29-3.03-8.6,7.31-4.75,1.43.82-.12,1.92,2.11.33,3.61,4.08,2.02-.03.91,1.95,2.71,1.02,1.3,2.15,3.2.64,3.18-3.04,1.8-.35-.41-2.06,3.71-3.4,5.32-.89,2.86-2.58,3.45-.63,4.21,2.55,2.36-2.13,3.12-.44,2.35,4.47.83-1.76,2.39.97,1.17-3.37,2.66-2.14.31-2.17,3.34.75,3.97-.9,3.94.45h0l.27,16.87-1.58,3.76,2.5,2.51,1.15,3.16-1.83,7.88,11.11,35.96-2.29,4.66-6.85,1.06-2.84,4.5-7.13-1.13h0l-8.17-.57-5.17.97-3.74,5-1.24-1.34v-2.45s-3.53.68-3.53.68l-1.69-.61-2.74,1.12-11.25-2.26-2.13-1.66-.15-5.85-3.72-3.04-1.49-2.96-1.45-.41-4.91-5.55-2.18-1.21-.48,1,1.5,4.27-.79.91,2.15,3.23,1.61.72-.59,2.74,1.34,1.16-.89,2.05,1.28,4.64-8.71,10.05-2.52.85-2.43,5.4-6.48,7.2-2.4,5.58-3.03-.27-3.85-2.24-4.2-.31-2.95,1.01-1.32,3.85-1.62,1.66-13.53,1.35-1.75-2.1-2.88,1.43-1.87-1.34-3.59,2.26-.53,3.15,3.52-.83,2.73,4.69-.07,2.1,3.63,4.12,2.84,1.62,1.35,3.11,3.45,3.75-2.39,2.4-1.25,5.74-3.25,1.51.07,4.13-2.96-.26-.86,1.73-3-.41-3.59-5.9-6.65-5.56-.78-3.98-4.39-6.37.11-1.72h-2.3l-4.31-3.1-2.74,2.45h0l-.68-5.2.78-2.82,2.02-2.11-1.76-.05-2.89-9.86-2.32-3.44,2.75-2.29,4-.07,2.22-1.42,1.02.76,5.06-.9.55-1.79,1.04.23,1.1-4.23,3.26-.78,1,1.45,1.02-1.39,1.4.33-1.47-3.1,1.13-1.2,3.63-.19.42-.72-.85-2.56-8.74-8.1-.18-1.34,2.69-2.02.03-3.93-1.02-1.75-2.28-1.19-1.79-3.52-6.71-1.53-.98-1.68,1.31-.8.18-3.37-6.55-5.89-.71-1.87-4.13-1.61-2.39-2.07-1.31-1.65-1.21-6.86h0l2.33-.74,2.11,1.55,2.36-1.21,2,1.76,1.54-.03-2.24-2.81,1.91-3.76,2.07-.74,1.75-4.4-.72-1.94-2.07-1.06.05-1.75,2.05-.59,1.06,1.7,2.15-.14,7,5.78,3.04-.93-.41-6.3,3.48.07.38-1.8,1.98.72.98-1.05,2.77,1.53,1.38-.9-.41-2.1-2.02-1.69.4-2.81-2.03-1.66.4-1.01,3.22.57.57-1.38,2.36-.53Z"/>
  <path id="LK-22" class="cls-2" d="M304.23,504.3l4.12,3.27.34,1.35.56-.82,1.4,1.04-.3,7.32,2.6,1.6,2.93.5.15-4.4,4.32-1.91,1.55.72,1.4,2.65,3.97-.25,3.65,2.62-5.3,2.33-1.17,3.95-2.78,4.25-2.67,17.03.31,2.96-2.39,8.26-2.44,1.3.59,3.41-2.73,1.32-1.12-1.53-3.52.91-2.1,2.8,1.3,1.47-.57,14.55,2.93,8.84-1.28,3.15-2.41-1.4,4.88,4.87,7.15-.46,1.23,2.18,3.19-2.25,4.4-.4,1.38-3.03,3.07-2.43.67,2.81,1.47.86,2.59-.48,1.83,2.71,1.83-9.76,6.3-.2,5.86,2.09,4.05-1.47,10.35-.68,2.44-1.54h0l.97,6.33-1.4,2.73,1.45,3.07.52,4.47-3.57,5.02-1.04,5.03h0l.37,3.64-1.15,3.9.56,3.4-1.47,5.14.68,21.59h0l-3.94-.45-3.97.9-3.34-.75-.31,2.17-2.66,2.14-1.17,3.37-2.39-.97-.83,1.76-2.35-4.47-3.12.44-2.36,2.13-4.21-2.55-3.45.63-2.86,2.58-5.32.89-3.71,3.4.41,2.06-1.8.35-3.18,3.04-3.2-.64-1.3-2.15-2.71-1.02-.91-1.95-2.02.03-3.61-4.08-2.11-.33.12-1.92-1.43-.82-7.31,4.75,3.03,8.6-1.49,3.29-.2,5.21-2.1,2.26-7.46.8-4.73-.15-3.56-3.3-4.5-1.46-2.8-3.44-4.02-1.73-1.77-2.07-1.57-.03-2.44-2.88-1.57-.48-.34-3.64-1.73-1.08h0l-.42-3.18,1.53-2.21,1.5.1-1.17-2.39.59-6.1-1.23-1,.14-1.1-1.77.26.63-2.3-2.14-3.78-1.47-.5.65-1.51-.67-1.85,3.05-6.08,3.03-.85-1.45-5.4,2-3.35-2.63-2.99-.45-3.34-2.67-.9-1.64-2.26-1.05-5.25,1.83-.83.22-1.69-1.21-3.2-.19-6.74-3.18-.71.15-7.84-4.69-6.38-.56-3.4-3.9-.3-1.95-2.56-.44-6.95,1.28-1.87h0l.25-3.03,6.72-.34,11.21-5.96,2.96-5.36,3.91.33.79,2.5,1.85.65,4.42-3.53h1.88l.04-3.87,4.42-1.62-1.8-3.22,5.96-4.16-.33-8.66.98-.46.61-3.23,2.7-.93,3.78,1.85,6.48-9.68,1.96.08,1.66-2.06,10.19-3.68Z"/>
  <path id="LK-23" class="cls-1" d="M223.78,775.28l2.74-2.45,4.31,3.1h2.3l-.11,1.72,4.39,6.37.78,3.98,6.65,5.56,3.59,5.9,3,.41.86-1.73,2.96.26-.07-4.13,3.25-1.51,1.25-5.74,2.39-2.4-3.45-3.75-1.35-3.11-2.84-1.62-3.63-4.12.07-2.1-2.73-4.69-3.52.83.53-3.15,3.59-2.26,1.87,1.34,2.88-1.43,1.75,2.1,13.53-1.35,1.62-1.66,1.32-3.85,2.95-1.01,4.2.31,3.85,2.24,3.03.27,2.4-5.58,6.48-7.2,2.43-5.4,2.52-.85,8.71-10.05-1.28-4.64.89-2.05-1.34-1.16.59-2.74-1.61-.72-2.15-3.23.79-.91-1.5-4.27.48-1,2.18,1.21,4.91,5.55,1.45.41,1.49,2.96,3.72,3.04.15,5.85,2.13,1.66,11.25,2.26,2.74-1.12,1.69.61,3.55-.68v2.45s1.23,1.34,1.23,1.34l3.74-5,5.17-.97,8.17.57h0l-.91,1.88,5.18,10.04-.16,4.1-2.43-.8-.55,4.2,2.48.67,1.6,1.77-2.13,1.7-1.58,3.68.97,1.17-.45,1.91,3.29,3.42-1.88.97-.72,3.04-4,2.43-.78,3.16-2.48,1.28-.07,4.98-2.59,8.02-5.78,3.75-1.88-.34-4.6,1.32-3.49-1.23-7.38,6.15-1.38,7.12-3.9,2.96-9.45-.67-1.4,1.46.33,1.64,8.82,2.37-.44,2.07,1.66.72-.74,3.23,1.53-.6,1.83,1.51-.95,3.97,4.68,4.66-1.64,3.14-1.96.97-2.1-.57-.79,1.04.97,2.54,5.41,2.03-.79,2.51-2.5,2.65-2.93-.7-1.7,1.01h0l-5.56,4.95-4.08-1.2-8.13,5.51-3.65-1.4-6.94,2.32-3.35-1.15-9.07-.78-.49,2.03-1.51.93-5.06-.59-5.59-1.66-11.63-1.24-7.8-3.22-4.65,2.09-4.35-2.43-2.93-.48-3.4-4.95,3.76-3.26-.44-.83-1.42.25-.94-1.47,1.06-4.35h0l2.15-1.08,2.1-3.26-.57-1.46-2.47-1.24-.07-2.25-1.43-1.72.85-4.17-4.94-3.18-5.5-.46-1.46-1.64-5.97-2.06.38-2.29.86-.18.03-9.12,2.18-2.66-.42-2.54-3.2-3.04.19-1.9,1.24-1.51,3.48-.33,4.7-4.91.2-1.96-1.04-.03-.25-1.1Z"/>
  <path id="LK-31" class="cls-2" d="M93.41,937.16l2.65,3.7,1.54-.68.93-1.98,2.3.05,2.18,1.16,1.36,3.18,2.85.1,6.29,3.16,2.48,3.04,4.65-1.19,6.56,4,3.22,4.45,2.11,1.3,6.44-.25,9.97,3.42,4.55-1.36-.05-3.57,1.4.25.95-2.36,5.77.75,2.18,1.01,6.34,6.27,2.15.46,4.96,6.2,1.23.4,1.01-4.25-1.66-3.67h0l-.67-2.36h0l-.82-8.15,2.74-1.36,3.22.15,5.78-3.93,5.09-2.47,1.5.23,2.97-2.28,2.3-.41,1.49.76h0l10.21,9.2,3.42.83,2.47-1.46,2.96,1.91,3.83.48,1.88,2.13,5.21-.52,1.17,3.44h0l-1.92,1.01-2.8-.34-3.67,3.67-1.17.08,1.06,3.53,2.97,2.32.87,1.87,1.96.59,2.81,5.95-2.44,2.11-.31,2.05-1.55-.48-1.35,1.61-2.11-.41-1.69-2.1-2.06.38-2.11-3.63-3.7-1.7-.97-2.2-4.06-2.14-2.67-2.86-3.26,1.27-1.99-.6-2.21,1.72,4.4,5.96,5.4,2.88,2.4,5.54,4.75,4.98-1.08,1.72,1.65,2.15-1.58,1.06,1.23,2.92-3.64,3.25-11.9-1.87,3.97,4.36,1.45,4.04-4.19,1.16,2.28,4-1.34,1.53-1.83.23-.57,3.25,1.01,4.25.87,1.43,3.01,1.19,1.57,3.94,1.88,1.19,2.1-.25.65,1.7,4.38,2.95-.6,2-2.52.91-4.58,3.83-1.69,4.43-1.54.38-1.34-1.66-1.35.82.63,5.69,1.3.83,4.35-.38,3.07,3.74-3.01.89-.33,1.05-3.41-.42-2.24,1.43-2.4,6.78.83,5.05h0l-3.9-.68-15.89-6.86-13.58-1.84-3.74-2.97-1.99,1.15-2.14-3.27,1.38-.46.76-2.36-1.06-1.3-2.67.6-.61-.45,1.24-.7-2.09-.52-1.45.98.46,1.91-.93.53-2.82-3.5-6.64-3.59-1.45-1.91.3-.91-14.2-10.83-1-3.35-6.26-5.26-.38-4.96-1.83-1.91-1-3.12-7.34-7.09.61-2.67-3.05-6.64v-2.06l-4.65-7.01-.85-2.37,1.39-7.32-2.69-4.96.68-2.13-1.98-6.11-2.14-3.59-7.32-22.81Z"/>
  <path id="LK-32" class="cls-2" d="M232.54,956.93l10.57-1.85.03-3.8,2.99-.26.15-1.5,1.2-.42,1.46,1.83,2.85-1.32,3.7,1.01,5-1.91,6.01.35.34,2.62-1.23,1.54.52,2.77-3.01,3.12,1.27,3.79,5.56-1.54,8.22-.63.56,3.85-1.69.71,1.99,2.71,1.75.1,1.2,1.4-1.5.85.11,3.49h0l-3.68.94,1.91,4.2-2.99,4.49,2.62,2.62-6.52,2.43-2.75,3.48-.9,4.24-4.65,6.85.89,3.03,2.14,1.64,2.6.35,2.28,3.1,4.05.2,2.29-1.19.59,1.99-1.98,4.85-2.35,2.17.41,2.03,3.41,1.35.9,2.55,6.41-1.27,1.94.87.52,1.42-3.23,1.85-1.1,1.83.9,1.83-.38,1.64,3.19,3.78-.9,1.12.79.76-.33,1.57-1.16,1.01-1.35-.91-2.92,2.3-2.99.59-1.79,2.52,2.41,1.16.76,3.75,6.91-.34,1.87,2.21-.42,1.61-2.78,1.12.4,4.92,4.01-.7,5.82,3.95h0l-1.92,5.2-2.75-.76v.85l-2.14.15-.08-1.21-2.21-.08-1.15,1.45-3.9-.3-6.26,1.15-1.91,1.06-.76,1.98-1.06-1.06-3.67.61-.46,2.06-1.15.23.61,1.53-4.96,1.91-1.83-.38-.83,2.17-2.14-.45.15-2.21-1.91-1.98-5.73-1.83-4.96.15-.3.45-4.05,1.21-7.49-1.3-6.49.68-3.59-2.06-1.76.91-1.99-1.53,1.99-.53.3-3.89-4.35-2.67-2.82.38-2.67,4.57-9.01-2.67h0l-.82-5.05,2.4-6.78,2.24-1.43,3.41.42.33-1.06,3.01-.89-3.07-3.72-4.35.37-1.3-.83-.63-5.69,1.35-.83,1.34,1.66,1.54-.38,1.69-4.43,4.58-3.83,2.52-.91.6-2-4.38-2.95-.65-1.7-2.1.25-1.87-1.19-1.57-3.94-3.01-1.19-.87-1.42-1.02-4.25.59-3.25,1.83-.23,1.34-1.53-2.26-4,4.19-1.16-1.45-4.04-3.98-4.38,11.92,1.88,3.64-3.25-1.23-2.92,1.58-1.06-1.66-2.15,1.09-1.73-4.75-4.96-2.39-5.54-5.4-2.88-4.4-5.96,2.21-1.72,1.99.6,3.26-1.27,2.67,2.86,4.06,2.14.97,2.18,3.7,1.7,2.11,3.64,2.05-.38,1.69,2.1,2.11.41,1.35-1.61,1.55.48.31-2.05,2.44-2.11-2.82-5.95-1.96-.59-.87-1.87-2.97-2.32-1.05-3.53,1.16-.08,3.67-3.67,2.78.35,1.94-1Z"/>
  <path id="LK-33" class="cls-2" d="M538.38,898.88l1.39,1.75,1.58.34.53,2.05,2.65,2.22,2.07,3.72,3.56-.75,3.46,1.62,2.6,4.6,3.41,2.33,4.88.15h0l.76.63-.61,2.44-2.9,4.05-8.4,5.88-1.15,3.14-2.51,2.44-4.35,1.36-5.05,3.44-.3,1.99,1.36,1.06-5.33,4.96-7.64,3.65-3.67,3.29,2.06.46-10.23,2.59-6.34,2.9-2.06,2.21.91,1.83-1.83,2.44-3.05,1.38-.61,3.59-2.29.23-1.6.98-7.49,2.44-8.63,10.54-2.89,2.36-5.11,1.38-1.53,1.15-.38,1.75-8.93,2.99-.7,2.82-3.5,2.44-.08,1.51-8.17.7-7.02,3.35-7.79.76-4.12,3.05v1.6l-10.08,1.3,2.36-1.15.61-3.42.61.98.83-.45-2.36-2.59-3.2.37.98-.91-.83-2.06-.08,1.08-1.15.15.16,1.83-2.52.85,1.53.98-.76,2.14,2.29,2.74-3.29,2.75-5.81,1.53-1.6,1.83-4.05,1-.91,2.28,1.23.7-8.18.45-1.51,1.46-11,.83-1.46,1.2-9.22.41-6.04,1.6-4.73,3.44-8.62.45-2.84,1.3-.07,1.46-1.46-.16-7.79,3.44-2.36.08h-.61l-5.96,1.45-.91,3.05-1.38,1.13-4.5-.91-7.4,1.08-3.82,1.6-1.76,2.21.61,1.99-2.67.6-2.82,3.67-1.83-.23-.85,1.06-1-.68-.53,1.15-2.59-.31-1.99,1-.83,1.91,1.06.68-2.52.46-.98,1.38.3,2.81-1.61-2.06-2.05.15h0l-5.81-3.95-4.02.7-.4-4.92,2.8-1.12.42-1.6-1.88-2.21-6.9.34-.76-3.75-2.41-1.16,1.79-2.52,2.99-.59,2.92-2.32,1.34.93,1.16-1.01.33-1.57-.79-.75.89-1.12-3.19-3.78.38-1.64-.9-1.83,1.1-1.83,3.25-1.85-.52-1.42-1.94-.86-6.4,1.27-.9-2.55-3.42-1.35-.41-2.03,2.35-2.17,1.98-4.85-.59-1.99-2.29,1.19-4.05-.2-2.29-3.1-2.6-.35-2.14-1.64-.89-3.01,4.66-6.86.9-4.24,2.75-3.48,6.53-2.43-2.63-2.6,3-4.49-1.91-4.21,3.67-.94h0l9.33-.12,2.15,1.57,5.66,1.16,7.51,4.24,3.08.41,7.43,3.45,7.32.45,9.15-1.8,3.1,1.45,3.52,5.59,2.9-.75,4.9,3.03,5.69-.55,2.37,3.33,3.57-2.97-2.81-5.24-.34-3.5-1.73-.19-.8-3.72-3.33-3.01h0l6.97-3.9h0l2.97-1.02h0l3.26-3.2,4.01-.8,9.8-4.5,1.2-3.9-2.07-2.69-2.07-.14.22-5.1,1.36-2.26,6.53,1.3,3.42-4.27-.11-4.12,3.45,2.88,1.57-.7.98-2.73,5-.1,3.34,1.61,9.79-.76,2.13,6.46,1.61-.41,1.76,1.77,2.28-.15,1.36-2.67,3.89-.72,5.25,6.1,2.1,4.42,3.67,2.59-.9,2.26,3.91,2.24,2.86-.55,2.14.7,2.62-1.45,2.86-2.47,1.36-3.85,9.35-3,1.24,1.28,2.85-1.91,1.3.7,2.33-.67,3.14-2.07,4.2-.23,1.65-2.07,2.95-.1,2.58-4.46,1.49.23.56,2.05,5.26-.78,2.1-2.43,2.41.37.91-.87,2.32,1.69,3.55.12,1.57,1.7,1.47-.29,2.11-3.05-.97-8.11,2.73-4.25-1.9-2.41-.25-3.78,1.02-2.48,7.2-5.05,4.31-1.5,2.44-4.45,3.87-.16,5.02-4.96,4.36,1.04,2.1-2.78,3.01-.11,2.3-4.84Z"/>
  <path id="LK-41" class="cls-1" d="M259.99,99.27l6.72,5.54-7.25-1.54.53-4ZM3.69,78.21l2.59.15,2.06,3.76,3.29,1.54.3,1,7.79.61,1.3.93,1.53,9.7-1.83,3.85-4.58.23-3.35-1.16-11.37-6.91-1.15-10.99,1.53-2.62,1.68-.7.23.61ZM40.12,65.44l.61,2.39,1.38.85-.53,3.23-2.59-1.54.08-4,1.05-.93ZM33.48,59.44l1.23.55-.45,10.08-2.37-.93-.85-2.15.08-5.39,2.36-2.15ZM56.53,55.75l2.59,2.77-.76,2.54-2.37-2.07-.53-2.54,1.08-.7ZM36.68,41.28l1,6.15-3.5,3.55,1.15.38-.7,2.15-3.44-3.85,2.14-5,3.35-3.38ZM57.75,36.74l3.35,2.85,2.29-.38,1.3-1.39,1.91,1.31.76,2.3,1.76,1.16-1.23,2.3,2.67,3.55.53-1.39-1.61-1.23,5.58-1.31-1.91-1.31,5.35,1.16.53-.7v3.85l-1-.46-1,.76-1,.15-.3.93,7.02,5,5.96,2.92,2.37-.15-.15-.93,1.6-.46-.45-1.69,4.28,1.54,1.98,2.24-1.3,2.62.46,2.47-.76,1.61-3.97,2.3-3.67-.76-2.06-1.39-.46-1.62,1,.08-.08,1.31,2.67.15,1.3-4.46-1.99,2.54-3.59-.46-2.37-2.39-4.66-2.15-4.88-.76-3.14,4.69-2.36-.15-1.83-1.69-8.02,4.46.45.93-1.45,2.81,1.06,1.88-1.06,2.3.85,2.07-1,.55-3.59.61-11.37-2.45-.37-4,1.3-.31.68-1.84-1.45-1.39,1.15-.85-.38-3.7,1.3-2.3,1.23,1.31,1.23-.93-.15,2.3,1.3.76-1.38,3.46,2.9,2.39,1.23-.31v-1.16l3.97.85-2.21-1.39-.53-2.47-.23,1.16-4.58-.15.76-2.24,2.74.86,2.59-2.37,4.88,3.46,8.4-4.62-4.5-3.23-1.15.31-2.14-4.31.57-1.43,2.17-.26,1-1.16v-2.07l-1.76-1.61-2.21-.15-.23,1.39.68-.55,1.45,1.69-.91,2-1.68.08-2.06-2.47-2.44-3.76-.3-1.77,1.68-1.23-2.52-1.77-.15-1.54,3.74.46,1.61-.86ZM45.38,33.59l-.76,8.54-1.23-3.31.46-3.23,1.53-1.99ZM155.32.26l10.38,2.85,2.82,6.85,5.88,9.86,13.28,19.09,8.25,8.92,40.39,32.15,4.58,4.08.61,1.61,17.1,13.15.46,2.07-.68.61-2.52-.76-11.14-7.61,1.76.46-.61-.93-3.2-.61-5.8-3.85-7.55-2.02-2.21.56-.53-1.23-5.22-2.92h0l.22-5.25-2.35-4.94-12.68-9.87-18.85-10.68-9.98-11.5-11.06,21.25h0l-12.38-7.01-9.01-4-3.12-.38-2.97,2.7,1.83,1.69,1.45-1.92,1.23,1.08.3,3.61-1.06.93.91.93-3.63-.34,3.14,1.23,2.21-1.23.91.55,1.06-.31,1.76.46,1.38,1-.85,1.39,1.23.38-3.59,1.92-2.52-1.23-1.68.38.91,1.31,1.98-.7,1.38,1-.46,1.08,2.44-.93-.08,1.46-2.14.53,2.06,1.16.53.76,3.74.46-2.2,1-8.03-4.31-7.55-7.16-10.16-4.54-7.32-4.08-.68-1.4-.23,2.41.53,1.08.3,1.31,4.81,1.92,6.26,6.31,4.2,1-2.14.46-7.87-2.85-12.98-8.62-1.91-.46-1.38,1.16-5.58-1-3.82-3.46-2.67,4.08,2.9,2.62-2.9-.53-1-1.54,3.59-4.84-1.76-2.24-.15-4.46-2.36-1.31-1.61,2.24-1.15-.31-3.2-3-.7-2.15-2.82,3,.23.85-3.74-.31-1.45-4.08-1.76-1.84.38-3.31-3.44-5.3-6.26,1.31-.08,3.08-2.06-.23,1.15,4.08-3.44,2.3-4.28-.23-.23-.85-3.74-1.16,3.05-4.16-1.99-5.85,2.37-3.55,4.66.31,5.41-1.77.15,1.23-1.47.55.93,1.46-.85,3.93,6.41-.7-1.08-1.92-1.75-.46-1.15-2.47,1.68-3.78,5.03-.61,3.74-2.3.85-2.39,11.22-4.62,8.85-1.62,3.59.31,1.15-.7,9.61,2,8.63.61,2.97-.61,4.28-2.62,1.61.85,1.53-2.15,13.43-.61,7.12-2.28Z"/>
  <path id="LK-42" class="cls-1" d="M92.26,146.32l1.68,2.84.23,2.62,1,.7.61-1.38,2.06,1.31.08,2.77-1.76,1.61-1.06-3.07-1.61-.85-3.05,1.38-1.91-1.31-.3-2.92,2.14-.85,1.9-2.85ZM116.92,142.32l2.36.31,1.99,2.77-3.14-.23-1.83-2,.61-.85ZM112.03,135.26l.61,5.15-1.76-1.08,1.15-4.08ZM99.9,97.52l1.36.93.08,1.31-.91,2.69-.91.31-1.91-4.23.38-.93,1.91-.08ZM166.62,61.6l11.06-21.25,9.98,11.5,18.85,10.68,12.68,9.87,2.35,4.94-.22,5.25h0l-1.19-1.77-1.99,3.85-2.82-.46.23,1.92,1-.15-.15,1.84,1.45.93-2.14-.31-3.59-3.15-5.35-2.15,2.14,3.53-.76.23-.08,2.77,1.76,1.92.68-.31,1.15.7.68-1.08-.52-1.28,4.12,2.62,1.53.23.53,1,7.02-.76,1.68.85-.08,1.39,2.21.53-.23,1,1.61-1.08.3,1-1.06,1.08,2.06.15,1.06,1.69,3.9-.38.68.7.85-2.15.53,1.69,3.74-1,3.9,2.07,3.44.55-.53,2.45.91.46-1.98,1.77-1.53-.15,2.59,2.24,3.89-.08,2.52,1.08.08-2.15,1.61-.15,1.61-1.69,6.56,1.39h0l.45,1.54-.89,1.01.34.53-1.28,4.91-2.73,3.04-1.24-.78-2.39,2.54-.65,3.49.65,5.37-.74,1.49.68,2.25-7.79-4.31-7.24-7.42-.63,7.51-3,5.07-.56,3.91-29.82,1.66-.37,8.71-3.16,1.94-20.25-2.06-11.54,2.96-4.17-1.42-6.46,1.51-1.9.65-5.54,5.07,1.83,10.55-.57,1.25-7.25-.89h0l-11.75,7.24-8.77.45h0l1-3.95-1.06-4.53,1.06-6-2.59-2.07-.38-2,1.53-3.15,1.68-1.02.08-2.52-8.55-7.15-1.76-.61-1,1.08-2.82-.15-2.06-1.61.15-3.15-1.23-2,1.15-2.07-2.37-2.07-.23-7.08,5.11-3.7,10.69-3.46,4.12-3.23,5.88-2.69,2.37-3.46.53-.85,3.67-3.93,3.2-1.77.83-3.38-5.2-8.07-5.5-5.62-11.84-9.46-14.36-8.15,2.67-3.31.31,2.69,2.59-.23.76.31-.15,1.31,4.88.9,2.06,2.1,1.45-.55.85,2.15,1.61,1.39,3.35-.85,4.73,5.77,9.4,4.08,4.88-1.08-.53,2.39,1.53-1.39.76,1.39,2.06.38.85,2.24,2.52-1.23-1.15-1.77.91-.15,7.94,6.7,1.38.55.76.15,1.45-.46,3.29,2.62-.68,1.08,2.14,1,.15,1.92-.85-.61-.68-.85-3.52-1-2.06,2.77,5.35,2.77,1,1.69-2.37-1-2.52,1.31-2.14-.85-.45,1.77,8.47,3.93,4.27-1,1.53.08,3.52-1.08-1.15-.38.61-.7,1.3-.08.31,1.46,3.2,1.54,1.53-1,.23-3,1.61-.08,2.59,1.23.3-.9,2.21.37,4.2-3,.3-.61,1.61.93,2.52-.93-.38-4.23,1.45-2.39-1.21-2.62,3.67-.38.08-2.3-2.21-.7-.85,1.46-1.64-.35.87-1.02-3.67-1.69,2.22,3.61-1.16.55-3.67-4.92-4.66-4-.46-1.69-6.79-4.69-.68.23,1.91,2.07-2.14-.93-6.87-5.24.49-1.09-12.05-6.85Z"/>
  <path id="LK-43" class="cls-1" d="M74.55,285.41l.53-1.55-1.83-.68,1.3-8.52,1.76-6.22.68.15-.23,1.92,1.83-4.15-.61-1.38-.38,3-.91-.08.61-4.68-1-3.83-6.8-10.36,2.15,1.61.98-2.84-1.75.76-1.38-.76.76-1.77-1,.31-2.75-2.07,1.06-1-.3-1.31-2.59-.61-6.56-8.67-12.14-9.83-7.17-4.69-12.14-5.52-13.51-2.92.08-2.62-1.83-.53,3.12-3.07,10.16-1.61,12.29,1.84,20.92,7.38,7.1,5.84,4.58,4.38,2.21,3.76,4.73,3.61-2.74.23-4.35-3.68-8.02-2.84,1.3,3.91,3.74,3.91,3.59,3.07,6.41,3.38-.23,1.61-6.64-.46-.61,1.38,1.3.38-2.52.76.15,2.15,3.29.38-.91,3,3.97-3.61,1.15,3.91,5.05.46,7.02-6.53,5.2-1.69,1.3-5.52,3.59-1.46,2.59-3.07,3.97-1.38,3.44.15-.53-1.15,3.35-4.23,1.76-4.84,3.14-3.38,1.21-4.3-.38-3.15,1.68-1.69-1.06-2.15,1.06-3.91-.46-1.69,2.06-2.39.91-3.07,2.74-2.22,1.3-2.45,1.3-9.91,1,.38,1.98-3.27h0l8.77-.45,11.75-7.24h0l1.02,16.94,5.95,9.1,2.39,8.29-2.66,4.4,1.08,11.73-6.91,2.48-5.14,13.61,3.53,3.22.29,1.54-3.56,2.24.26,4.5-.83,1.31,20.47-.37,24.9-2.06h0l7.91,3.25,3.35,3.45,1.38,7.68,3.97,8.65.53,5.2-2.36,2.17-6.2,2.52-14.78,2.58-5.52,2.86-18.63-2.11-6.16,10.73-2.54,6.74-5.55-2.73-1.91,7.12,6.41,4.23,2.4,4.54,2.77,2.2.75,1.88,1.47.42,1.19,2.88,2.73,2.73h0l-33.42,8.55-7.49-1.88-1.77.72-9.8-5.41,2.99,10.01-1.36,31.76-4.34-.6-.57-.85h0l-5.65-1.96-3.01-3.18-2.84.63-3.53-2.85-2.59.72-3.03-.59-2.24-2.03-3.3.93-3.55-2.24h0l-1.3-1.36-.18-5.11,3.59-5.9,3.29-3.07,1-3.53-1.23-5.37,2.59-6.83-.76-8.44,2.82-4.76-5.11-9.2-2.52-7.3-3.89-4.23,1.38.53,1.68-1.15-2.36-.52Z"/>
  <path id="LK-44" class="cls-1" d="M189.88,242.95l13.95-8.86,11.8-10.75-2.07-16.83-6.03.03-.1-6.74,23.99-.68,5.21,6.63.75,4.72,4.69.14,8.22-8.66,6.87-.95-.87-4.19,5.96-.1,5.22.68,3.23,2.2.82-1.24,2.56.94,1.54,10.73,4.39.95,3.9-2.32,2.56,2.4-1.45,6.57-2.62,2.58.11,2.67,2.21.26,8.9-5.74,19.08,11.44-5.85,20.25h0l-1,.22-2.5,8.55h0l-7.43,1.99-3.89-.16-5.41,2.55-6.76,4.95-5.92.93-13.92-.45-.83,6.03,1.99,1.35,7.55,1.64,2.78,5.99,3.87,3.33.03,3.57-4.8,2.9-2.8,3.61-1.45,3.93-4.75,2.28-3.27,6.15-4.31,1.49-1.01,4.51-5.3,3.4-1.45,2.3-4.19,1.92-2.88,3.87-3.56.1-10.38-7.32-4.85-2.09-6.48,5.35-.98-.23-.63,3.3-3.12.7-3.05,7.02-5.06,3.4-.57,2.9,1.05,2.52-1.13,1.25.37,3.82-2.85,2.41-4.9.61-3.9,7.39-6.63-1.28-6.87-2.73-1.04-5.7-1.38-.94.57-1.58h-.95l-1.21-2.85.15-2.85-4.06-1.95-2.67.52-2.55-3.52-.95-.03.5-2.3-1.53-4.08,1.24-3.11-.71-4.7h0l-2.73-2.74-1.19-2.86-1.47-.44-.75-1.88-2.77-2.2-2.41-4.54-6.41-4.24,1.91-7.12,5.55,2.73,2.54-6.72,6.16-10.73,18.61,2.1,5.52-2.85,14.78-2.59,6.2-2.52,2.36-2.17-.53-5.2-3.97-8.65-1.38-7.68-3.35-3.45-7.91-3.26Z"/>
  <path id="LK-45" class="cls-1" d="M267.84,104.97l12.22,10.15-.15,1.46h-1.06l-.23,2.45,4.81,3.76.83,2.24,6.72,2.45-9.08-8.3-.91-2.85,19.46,18.7,13.6,10,5.03,5.45-.46.76,1.68.46,1.68,5.39,6.18,10,5.88,19.05,5.03,9.75-1.83.61-1.23-.93-.3-3.15-3.59-.53,1.91.85-.38,2.92,2.44,3.15-.15.76-1.83-.61-.61,2.77,2.06-.15,1.91,1.92-1-2.22,3.05-4.38,13.21,23.89,8.63,13.51-3.67.7-6.72-9.6-6.72-6.91-2.52-.61-1.06,1.61.61,1.54-2.75,1.77-1-.31-.3,2.39,3.05,3.45,4.58,2.07.53,1.31.85.08.38-1.77.61.6,1-.83.08-1.69.91.38,1.06,2.39-2.44,3.53,2.74-.85h.91l-.23.64h0l-2.3,1.84-2.5-.44-3.16,1.91-2.75-.35-.3,1.95-3.64,1.3-1.7,2.39-9.6-.48-1.64,1.61-14.37,2.39-2.45,2.81h0l5.84-20.25-19.06-11.44-8.92,5.74-2.21-.26-.11-2.67,2.62-2.58,1.45-6.57-2.56-2.4-3.9,2.32-4.39-.95-1.54-10.73-2.58-.94-.82,1.24-3.23-2.2-5.22-.67-5.96.08.86,4.2-6.87.95-8.22,8.66-4.69-.14-.75-4.72-5.21-6.63-23.97.68.08,6.75,6.03-.04,2.09,16.83-11.8,10.76-13.95,8.86h0l-24.9,2.06-20.47.37.83-1.31-.26-4.5,3.56-2.24-.29-1.54-3.53-3.22,5.14-13.61,6.91-2.48-1.08-11.73,2.66-4.4-2.39-8.29-5.95-9.1-1.02-16.94h0l7.25.89.57-1.25-1.83-10.55,5.54-5.07,1.9-.65,6.46-1.51,4.17,1.42,11.54-2.96,20.25,2.06,3.16-1.94.37-8.71,29.82-1.66.56-3.91,3-5.07.63-7.51,7.24,7.42,7.79,4.31-.68-2.25.74-1.49-.65-5.37.65-3.49,2.39-2.54,1.25.76,2.73-3.04,1.28-4.91-1.88-1.49,1.54.95.89-1.01-.45-1.54h0l2.56-.95Z"/>
  <path id="LK-51" class="cls-1" d="M563.37,589.35l.61,1.08h1.53l.68,3.45-2.52,3.83-1.53.61-1.38-5.05.61-2.84,1.99-1.09ZM562.53,586.34l1.84.95-1.23,1.61-2.29.61-1.3-2.14.91.53,2.06-1.57ZM561.69,574.9l3.74,3.75.23,1.76,13.51,20.21,7.4,14.92,6.72,25.85-.38,2.84.76,1.53-2.74,1.23-.46,5.36-3.35-.85-3.35-3.37,1.38-2.37,1.23,2.67,1.23.23.23-3.6-1.53-.3-.23,1.3-1.23-1.46-1.85.91-.2-.98.53-2.07,3.12-2.14-.38-3.05-1.6-2.29.23-2.95-1.3-1.95,1.38-3.75-.61-2.44,1.53-1.46-2.21-.46-1.83-2.06-4.96-13.24-3.74.76-3.52-5.05,1.61-3.05-5.2-12.03.85-5.21-.91-.15-4.09-7.04ZM456.45,438.03l4.98-3.25,4.2.37,2.55-1.39,1.1.85-.63,2.21,1.36.68,1.3-.63,2.73,1.06,1.01-1.1,2.1.8v-1.3s1.68-.86,1.68-.86l1.02,1.91-.56,1.16,1.91.45,1.09-3.86h0l1.98,9.56,3.14,5.97.15,3.68,2.9,4.3-.53,3.91,2.06,6.12-.76,1.84,1.6,3.52-.83,1.53.23,4.3-1.68,1.15-1.83-.85-4.73-9.42-2.06-5.82-.53-9.27-1.08-1.61-1.3,1.38-1.76-1.23-1.3,3.3.76.3.3-1.15.61,1.46-1.91,3.3.76.53-.3,3.6,1.3,1.38-.15,1.53,2.14.91.83,1.76,2.21-.15,1,7.28,1.38.3,1.76,2.69,3.9.53.85,1.76,1.83-5.67-.91-1.69,1-1-.08,2.14.85-.7-1.99-6.67,2.37,4.83,3.2,2.52-.85,4.51,2.82,10.19,5.96,11.5,5.41,4.98,2.44.23,2.9,3.3,3.89-.76.61-1.53.08,1.69h1.15l.45-1.38-1.3-1.08,2.14,1.61-.08,1.23-2.82,1.83-1.06,3.85,2.97,6.35-3.59,2.6-4.43-.08-2.06,3.3,1.38,3.07-2.06,2.14.83,1.68h1.15l-.08,4.68,1.91,3.22-1.91.15.91,1.61-1,.53,1.6.76,1.91-.61,2.67,6.44,2.06,1.84-1.99.53-1.15-1.99-1.23.38.23,1.53-5.41-1.3.23,3.29-1.53,1.91-.15,1.91,2.14-.08,2.21-2.29,2.14-.23-.53-1.46,4.96,2.84,1.06-6.12-2.67-2.84.85-1.69-1.53.15-1.15-2.67-2.59-1.99-.38-2.84-1.3-1.38-.15-4.6-1.53-1.69,1.23.08.61-1.23-.91-4.36,2.59-1.15-1.3,1.99,2.52-2.29,2.97.15,2.82-1.53.61-2.52,1.06-.23,1.23,1.08.15,3.14,3.2.08,2.52,1.84-3.82.61-1.61,4.75,1.38,8.73,3.74,7.5,5.11,5.06,3.35.68,2.06-1.84,5.58,11.33,7.1,6.04,4.81,1.99.68,2.29,1.53.85,3.97,5.66-.76,2.75-1.06.61-2.9-1.68-1.15-2.22-2.14-.3.08,1.61,1.45,1.08-1,2.6,2.37,2.22-1,2.67-3.05.08-2.44-8.41.85-2.99-2.07-1.08-2.05-2.9-2.74-.61-.76.85-6.26-5.36-4.05-1.46-.53,1-1.3-.15v2.75l-1.83-.15.45,1.08-1.53.08.91,1.43-2.29,1.94-.3,4.9,2.9.38.61,1.15,4.88,1.99.08-1.08,1.54-.85.22-4.05,1.15-.15,3.97,3.29,4.73,1,1.68-.61-.53,1.68-1-.08-1.68,1.91,1.45.38.15,2.14,3.97,2.37.15,3.37,1.76-.85,3.35.61,3.14,6.27-1.45,1.61-.91-.46-.53,3.45,1.83.23-.91,2.84,2.97,4.98,1.23.08-1.68-3.22-.15-2.6,1.61-2.75,1.91,1.84,1.38-2.9,1.53-.85,2.21,6.27,2.75.3,4.2,7.19-1.68,2.14,1.83.08,4.12,2.84-2.82,3.9-2.36,1.08-1.23-1-.76.53,3.05,3.05.76-1.76,1.91-.46v1.3l1.45,1.23-.3,3.98-1.38.68-2.44-.68-2.82-2.99-1.68,1.08,1.38,4.13.91.15,1.99-1.99,1.38.85,1.76-.46,1.61,3.22,2.67.53-3.52,2.37-.53,2.84-5.41-1.84,1.53,1.53.46,2.52,4.05,2.75-.38,1.53-2.21-.3v2.44l-2.44,3.37h0l-.53.74-6.72.04-9.38,9.42-4.5,1.92-1.04,3.5-1.84.67-1.73-17.21.9-3.1-1.77-2.06.1-3.16-1.76-3.04-.57-3.79,1.01-2.44-8.37,4.68-28.13-.27-6.19-1.68,1.34-1.76-12.95-5.82-5.1-7.49.03-3,2.5-4.94-.5-2.11,1.84-3.65-1.28-3.9.75-2.25-17.1-4.05-4.28-2.9-6.08-9.67-4.68-4.72-.04-2.88-1.16-1.28-16.8-.34-2.41,1.36-.85-1.43-2.78-.85h0l-1.15-2.55.1-3.33-2.88-5.65.8-3.9-1.38-7.83,2.14-5.52-.34-4.9-1.01-1.6.3-2.48,2.22-3.46-.04-8.58,4.45-4.57,2.69-1.01,3.27.89,4-2.7,2.43.15,2.7,2.37,2.36-.8,3.19,1.45,3.26-.64v-5.4s-9.25-19.96-9.25-19.96l2.14-58-1.17-3.53Z"/>
  <path id="LK-52" class="cls-1" d="M437.55,579.6l2.78.85.85,1.43,2.41-1.36,16.8.34,1.16,1.28.04,2.88,4.68,4.72,6.08,9.67,4.28,2.9,17.1,4.05-.75,2.25,1.28,3.9-1.84,3.65.5,2.11-2.5,4.94-.03,3,5.1,7.49,12.95,5.82-1.34,1.76,6.19,1.68,28.13.27,8.37-4.68-1.01,2.44.57,3.79,1.76,3.04-.1,3.16,1.77,2.06-.9,3.1,1.73,17.21,1.84-.67,1.04-3.5,4.5-1.92,9.38-9.42,6.72-.04.53-.74h0l2.44,1.53,1.15-2.06,2.44,1.46,1.3-1.23.15-1.61-1.53-.91,1.38-2.67,1.6,2.9.3,3.44-1.23,2.37.76,3.29,2.06.46.3,3.05,1.83.15.53-1.68-1.76-.38-.76-2.37,1.76.91-.3-1.68h-1l1.53-3.75-.38-1.3,1.3.08,1,2.06.68-1.53,1,.85-1.38-5.13.53-1.46.91.08.61,2.44.91.38,2.14,9.33,4.35,5.81,2.82,11.55,3.05,7.42,1.62,15.07-1.09,12.16-.23,1.84-.91,5.73.91,4.28-.38,3.82-1.38.76-.07-1h-1.61l-.46,2.44-2.67.68-2.44,2.44-1.21-2.14v3.59l.46,2.67,2.75,4.28-2.21,1.84,3.67,2.9.91-2.99-2.14-2.22,2.06-.76,1-1.83.68,1.99,1.23-.38.68-3.2h-.76l-.53-3.75,1.06-1.38.08-2.82,1-.53-1.23,22.7,3.44,16.28,2.37,5.51-3.14,7.87-.76,3.44.76,1.91-6.64,19.02.23,1.68,1.23.46-1.45,2.97.76,4.2-1.53.53-2.67,4.2.38,3.05,1.91.91.23,1.38-2.06.08-1.15,1.23-1.53,4.12.38,3.9-1.61,3.97,1.61,1.91-.53,1.68.91,2.75-3.2,2.67-3.44,6.03.53,2.37-1.06,4.73-.91-.08-2.67,2.97-3.89,6.87-.38,3.14,1.53,2.14-.15,2.59-4.35,8.47.83,3.05-1.53,2.21-3.29,1.68-1.6,4.5-3.2,4.43.38.91-1.83,3.89-3.97,6.34-1.38-.18h0l-4.88-.15-3.4-2.33-2.6-4.61-3.46-1.62-3.56.75-2.07-3.72-2.65-2.22-.53-2.05-1.58-.34-1.39-1.73h0l5.67-91.87,2.3-12.94-5.33-5.24.87-5.32-1.94-1.47-.35-3.48-1.49-2.62,1.19-4.34,2.13-2.07-1.39-5.3-4.95-.33-6.26-3.22-3.71-.19-5.62-2.22-.8-1.28-.91,1.21-3.31-1.95-1.57-1.53-1.12-4.09.57-5.07-3.59-3.48,3.05-9.12,3.01-4.28,5.37-4.4,3.05-1.09-5.25-6.18-3-.79,1.24-2.93-.93-4.66-1.8-2.73.83-1.17-.5-1.53-1.73-2.21-4.06-1.65-5.14-5.6,3.25-3.61-3.01-11.33-2.05-3.86,1.3-7.9-3.33-1.06-.82-1.34,4.62-6.7-6.18-1.02-5.52,4.09-3.15.56-.8,1.58-3.95.72.38,2.95-.89,1.6-4.64,2.41-3.8-.7-.35,3.52,3.49,7.36-3.27,3.4-2.56.29-.56,1.43,1.08,2.43-6.19,2.17-5.56.4-.98-.94-.72,6.78,1.92,3.79-1.66,5.84,1.09,4.09-4.91,1.55-5.4,4.64.3-2.2-2.52-1.9.48-1.68-2.37-4.23h0l-.9-1.49,1.19-2.48-2.1-4.51-5.06-5.05.15-2.56-2.44-1.8-1.88,1.98-2.84.48-1.49-4.12-1.36-.41-1.64-5.13-2.75-2.66.19-2.1,1.9-.67-.1-2.36-3.38-11.56-1.66-1.62,3.34-4.3-.63-1.73,1.84-1.5-.08-8.1,2.15-4.24-.38-10.76-1.83-2.47-2.97-2.69-6.68,1.17-13.85,6.89-10.13,9.03-3.15-.85-2.22,1.31.46.75-.76.45-3.8.2-3.37-8.97-2.09-1.12-1.76-3.03-.61-11.82-1.62-1.8-6-2.41-2.1-3.79h0l1.04-5.03,3.57-5.02-.52-4.47-1.45-3.07,1.4-2.73-.97-6.33h0l5.95.94,3.64-1.32,6.94,1.16,5.35-3.29,7.04,1.54,6.4,9.71,7.55,3.76,1.87-.93,12.64,5.1,4.42,3.91,1.9-1.84.49-5.07,4.6-2.11-.78-2.22,1.05-1.99-.26-5.06-1.57-2.35,2.05-4.69Z"/>
  <path id="LK-53" class="cls-1" d="M351.28,234.15l-3.29,3.2,2.44,2.39,1.68-.23-1.06,2.15-4.27-1.84-1.53.7,1,2.84-.76,2.39,1.61-.85.76,4.46,2.14-.61.23,1.54,1.53-1.77,2.14,2.92h1.99l1.06-2.77-.83-.85-1.53.7.22-1.01,3.53-2.36.76.93,2.39-.7-.48-3.22-2.06-1.92,3.29-4.46,8.25,12.2,1.68,1.54,1.23-.85,1,1.69.7,5.4-2.54,2.28,2.44-.76,1.06.85v-3.91l4.35,8.6,7.17,7.15,2.54,1.16.75,1.91,1.21-1.76-1.76-.93,3.05-2.3-.68,1.84,1.45.76.85-.61-.45,1.69,1.76,1.84.23,3.76,7.4,11.36-.85.76.91.61.85-.93,4.35,5.84,1.76,1.15.91-.53,3.14,6.07,4.28,3.6-.53,1.23-1.68.53-1.3,3.53,3.74-4.45,7.94,14.96,5.8,6.37-.85,4.06,1.23,2.84-2.06,2.22.08,3.3,2.52,6.45,1.76,1.99,1.38.46,1.53-1.84-.3,2.07-1.38.3-.53,1.23,2.52,2.69.15,3.91-2.21.76-1.91,2.07-1.53.08-.08-1.38,1.53-1.94-2.06,1.17-.76-.7,3.44-4.38-1.68-3.15-1.15-.85-4.43,2.99.68-1.99,3.05-2.75-.76-.46-4.28,4.38.15-2.14-1.31-.55.46,1.69-2.21-.08,1.6,1-1.76,1.92v1.99l3.67-.53-.08,1.15-2.97.85.15,1,1.45-.23.76.91-1.06.76,1.76,1.15-1.23.46.15,1.31,1.06.46,1.15.38-.53,2.07.91.3.53,2.37-1.98-.23-1.91,1.23-1.68-.53-.53-1.38-1.53-.23.91-4.83-1.15-1.46-1.06-.08.3,1.31-1.08,1.61-2.97-3.68-3.67-1.61-1.53,2.84.38,1-4.27,5.21-3.29.91.68,3.07,3.67,2.54,1.83-1.31,1.53-3.68,5.5-1.99,5.73,2.22.76,5.29,2.14,3.68-1.06,1.84.23.61,1.06,1,.46.15v-2.37l5.03,2.3h2.06s.23-.61.23-.61l6.34.15.68-.08,6.11-.61,2.67-5.37-1.99-6.37,5.73-.46,2.9-1.53,1.23-2.84h1.53l2.14,2.99,6.64,5.21-.15,3.3,2.06,5.44,5.05,22.39,1.68,4.36,2.14,2.14-.91.76-1.38-1.69-1.68.46-2.52-5.29,1.23,2.99-.61,1.23,1.53,2.07-.45,1.53,1.23-1.46,2.14-.31-.07,7.66,4.5,18.42h0l-1.09,3.86-1.91-.45.56-1.16-1.02-1.91-1.66.86v1.3s-2.11-.8-2.11-.8l-1.01,1.1-2.73-1.06-1.3.63-1.36-.68.63-2.21-1.1-.85-2.55,1.39-4.2-.37-4.98,3.25h0l-6.01-2.32-1.9,1.31-.33,1.81-1.81.65-.23,1.7-1.87.05,1.2.87-.3.85-2.84.74-.63,1.95-1.66-.3.3,4.46-2.29,3.74-1.51.6,1.45,4.2-1.65.15-.64,1.23-.83,5.2-.65-.65-2.8.67-3.01,1.76-4.12-.65,1.19-2.47,2.9-1.16,1.51-4.17-2.45-1.23-.82-3.64,1.28-5.09-.48-3.12-1.38-1.23-3.44,1.1-3.9-2.21-1.8.19-7.38-7.23-4.19-.6-5.07,1.94-7.69-4.3-7.58-.19-3.79-1.84-5.2-.03-5.05,1.75-2.8-.11-2.39-10.87-4.9-3.1-2.82.22-3.08-5.43-2.67-.74-1.88,2.29h0l1.36-5.73-.5-4.36,1.61-4.45,2.22-2.17,3.45-11.52,2.51-4.04,2.67-1.73-.26-2.35,3.1.14,2.2-1.85h0l-1.28-2.73-2.56-.14h0l-3.75-.14v-3.59s-4.4-2.44-4.4-2.44l-.9-12.25-7.39-9.11-.34-5.6-6.03-4.64.87-2.37-1.55-1.96.53-2.33,1.8-4.55,3.78-3-.08-2.09-.49-2.28-5.55-9.2-.25-5.77-2.3-.97-.93-1.6.2-4.36.98-5.54,4.91-7.68,2.73-1.99.46-3.67-1.02.11-4.9-5.81-1.04-3.3-4.35-3.5-4.94-1.35-11.32-7.8-7.55-1.47-8.73,4.27h0l2.5-8.56,1.01-.2h0l2.45-2.81,14.37-2.39,1.64-1.61,9.6.48,1.7-2.39,3.64-1.3.3-1.95,2.75.35,3.16-1.91,2.5.44,2.15-1.87Z"/>
  <path id="LK-61" class="cls-2" d="M124.59,453.59l6.23,4.73,7.36,1.49,4.06,3.07,4.32.19,1.65,3.16,4.58-.61,1.81,2.66,5.44.48,1.84,1.36,2.86.27,3.25,2.71,1.45,2.81,7.31-1.05,2.88.98,1.69-.52,2.56,1.43,3.98,6.18,5.26,2.86,5.26,6.05,2.47-.07,3.64,2.47.59-1.16,2.77-.89,3.75,3.05.16,7.04-1.2,3.45,2.35,4.6-.34,2.6,1.25,4.95-2.55,3.16,3.35.74,5.02-2.03,3.27,2.48.71,8.41,4.53,10.06-1.39,6.07-1.72,2.22,2.62,1.92-.04,3.33,1.39,2.36,4.54,2.06h0l-1.28,1.87.44,6.95,1.95,2.56,3.9.3.56,3.4,4.69,6.38-.15,7.84,3.18.71.19,6.74,1.21,3.2-.22,1.69-1.83.83,1.05,5.25,1.64,2.26,2.67.9.45,3.34,2.63,2.99-2,3.35,1.45,5.4-3.03.85-3.05,6.08.67,1.85-.65,1.51,1.47.5,2.14,3.78-.63,2.3,1.77-.26-.14,1.1,1.23,1-.59,6.1,1.17,2.39-1.5-.1-1.53,2.21.42,3.18h0l-2.36.53-.57,1.38-3.22-.57-.4,1.01,2.03,1.66-.4,2.81,2.02,1.69.41,2.1-1.38.9-2.77-1.53-.98,1.05-1.98-.72-.38,1.8-3.48-.07.41,6.3-3.04.93-7-5.78-2.15.14-1.06-1.7-2.05.59-.05,1.75,2.07,1.06.72,1.94-1.75,4.4-2.07.74-1.91,3.76,2.24,2.81-1.54.03-2-1.76-2.36,1.21-2.11-1.55-2.33.74h0l-1.45-.48.41-2.66-1.99-2.39.11-1.51-1.24-1.19-2.07-.15-2-2.4-10.42,3.19-2.05-.52-.59.89,1.9,2.6,1,3.71-2.95,3.03,1.27,2.71-2.39,5.14-4.09-1.69-1.72.49-1.05,1.83-8.02,1.68-2.85-.55-2.7,1.15-14.41,10.16-3.07,4.54-2.43-.04h0l-1.4-1.32-1.45.61-4.13-6.38-6.19-4.5-.65-1.32,1.35-2.03-6.57-5.26-6.5,5.37-5.03,1.96-.76,2.1-5.69,3.4-1.75-.16-2.15-4.17-2.4-.98-1.95.45-.4-1.69-1.43-.87.9-1.45-3.34.79-2.24-1.61-.86,1.68-4.23,2.14,1.64.79-3.64.89-1.01,2.14-2.8.95-2.59-1.34-.12,1.02h-1.39l-.23,1.08,1.24,1.4-2.15.33-.37,1.72-1.04-.49h0l-.98-19.91-8.18-36.65-1.15-8.74-.94-19.51,1.72-3.35-.35-6.98,1.1-2.03,2.9-1.9.68-3.35,3-.57-.59-1.42-1.85-.16-.56-.98,2.18-1.79.08-3.26,1.4-1.06,2.06.65,1.15-1.13.52,1.62,3.01.34,1.12-3.18-2.69-2.22-3.87-.05,3.98-2.05-.61-2.77.93-2.07,1.38.67,3.75-1.38,1.61-2.95,5.47-3.18.33-1.68-1.55-.64-.74-2.14,2.26-4.55-1.77-5.24.72-4.01,4.27-1.38-2.03-3.85,3.01-1.46.75-1.4,5-1.53.8-3.71-.86-.19,1.1-2.18,2.3.04,1-1.9,3.18.26v-3.71s2.21-1.32,2.21-1.32l-.5-6.33,6.14-1.99-.46,1.24,1.77.65.41-2.96,2.03-.98.03-5.11,1.53-.63,1.98.91,3.01,3.42,3.53-1.06,1.21-1.32-4.28-6.75,4.68-8.6-1.77-2.14,1.6-3.68-.64-6.95,1.76-6.2-1.81-1.73-5.17-1.66-3.56-5.26v-4.73l-1.95-9.38-2.28-4.88,1.49-4-.68-3.89Z"/>
  <path id="LK-62" class="cls-2" d="M35.3,431.82l1.83,2.22-.76,1.23-1.68-1.23.61-2.22ZM32.18,424.2l-3.38,3.42.48,1.83-.68.61,1.45,1.46-2.06,3.45,2.14-1.08-.53-1.23,1.45-.15.45,1.08-1.45,3.14-1.23.61-.3,1.99-2.29-1-2.29,1.46,3.35-11.65,2.36-3.91,2.54-.04ZM35.53,403.61l2.44,2.6-2.21,3.22-2.06,7.51-1.53,1-.15,2.52-1.53,1.31.68-3.53,2.67-5.21.15-5.29,1.53-4.13ZM37.68,367.04l-1.68,4.83.91,5.21,2.29,1-.91,2.92-2.97-9.5,1.06-4.15.85-.91.45.61ZM75.61,351.68l3.55,2.24,3.3-.93,2.24,2.03,3.03.59,2.59-.72,3.53,2.85,2.84-.63,3.01,3.18,5.65,1.96h0l2.93,8.13-3.35,9.41-4.12,6.3-4.09,1.83-3.4,3.3.65,1.92-1.73.87-1.83,3.52-4.38.14-1.81,1.13-1.01,7.2,5.95,7.91,2.74,14.3-.63,2.24,3.94,7.08,1.01,7.4,7.36.56,2.97-2.75,6.67,4.46,4.7-.74,2.15,3.14,2.65.85.85,2.67,1.01.46h0l.68,3.89-1.49,4,2.28,4.88,1.95,9.37v4.75l3.56,5.26,5.17,1.66,1.81,1.73-1.76,6.19.64,6.95-1.6,3.68,1.77,2.14-4.66,8.6,4.27,6.75-1.21,1.32-3.53,1.06-3.01-3.42-1.98-.9-1.53.63-.03,5.11-2.02.98-.41,2.96-1.77-.67.45-1.24-6.14,2,.5,6.33-2.22,1.31v3.71s-3.16-.27-3.16-.27l-1,1.9-2.3-.04-1.1,2.2.86.18-.8,3.72-5,1.53-.75,1.39-3.01,1.46,2.03,3.85-4.27,1.38-.74,4,1.77,5.25-2.26,4.54.74,2.14,1.55.65-.31,1.68-5.47,3.16-1.61,2.95-3.75,1.38-1.38-.68-.93,2.07.61,2.77-3.98,2.05,3.86.05,2.69,2.22-1.1,3.16-3.03-.33-.52-1.64-1.15,1.13-2.06-.64-1.4,1.06-.08,3.26-2.18,1.79.57.98,1.84.16.6,1.42-3.01.56-.68,3.37-2.9,1.9-1.1,2.03.35,6.98-1.72,3.34.94,19.51,1.16,8.74,8.17,36.67.98,19.91h0l-4.25-2.29-.42,1.3-2.71.41.07,1.99-2.13.63.7-3.64-1.3,1.3-1.49-1.43-.55,1.55-2.28.35-3.48-2.54-3.93,3.63-1.99-1.91-1.15,1.08-1.81-.14h0l-.98-1.46-5.58-32.11-4.88-19.2-3.74-21.11-.76-17.52,4.66-2.14-1.23-.3-.15-23.65-4.5-24.34-10.61-42.34-10.08-31.55.23-10.72-1.38-4.6.68-15.16-2.29-5.82-.9-5.99,1.66.16,5.26-2.69,1.85-2.39,3.8-.52,8.02-8.89,2.6.45-3.37,5.3,1.53,4.06-.38,2.54-1.91.23-.08-1.31-1.53-.91-5.11,6.29.46,1.99,2.67,2.99-1.61,1.99.85,3.07-1.83,1.99-.49,3.86h-1.53l-1.3,1.99-.3,3.75,2.69,4.13-1.39,6.52,2.14,3.83,4.43,2.07-3.74,2.6.91,5.36-2.44,5.13,2.67,5.89,6.49,2.99,12.37,1.76,2.59-.85-.08-1,2.14.23,1.23-3.68-.08-1.38-1.06.15,1-3.75-.53-1.76-3.52-5.36-7.4-6.9-1.23-3.03,1.15,1.27,1.76-.53-.15-1.53-2.29-.7-.3-1.53,3.5.53,3.35-3.75,1.53-3.98-.08-2.69,3.97-1.91.15-2.6-1.3-1.84.91-1.38-1.76-2.3-2.29-.91-.15-2.99.68-.3-1.38-2.07,2.29.15-1.15-6.2-2.59-3.07-3.12-1.91,2.97-.76-2.37-2.14-2.9.76-.46-1,5.88-1.23,2.29-9.57,2.28-4.08,1.62-.67.15-1.69,1.83.7-1.53-3.37.76-2.22-.91-1.61.85-.38-1.45-.76,2.14-2.6-.23-3.37,2.06-1.61-.91-20,1.15-4.36,4.81-3.68-.85-4.6,1-2.3-.15-5.37,1.73-10.9,1.01-.83.61.91,2.44-.08,5.73-3.15,2.52-.15,1.06-4.06,1.23-.59Z"/>
  <path id="LK-71" class="cls-2" d="M303.38,257.85l8.73-4.27,7.55,1.47,11.33,7.81,4.94,1.35,4.35,3.5,1.02,3.3,4.91,5.81,1.02-.11-.46,3.68-2.73,1.98-4.91,7.68-.98,5.54-.2,4.38.93,1.6,2.3.97.23,5.77,5.55,9.2.5,2.28.07,2.09-3.76,3.01-1.81,4.54-.53,2.33,1.55,1.96-.87,2.39,6.01,4.62.35,5.62,7.38,9.11.9,12.25,4.43,2.43-.03,3.59,3.76.14h0l2.44.1,1.39,2.77h0l-2.2,1.85-3.1-.14.27,2.35-2.67,1.73-2.51,4.04-3.45,11.52-2.22,2.17-1.61,4.45.52,4.36-1.36,5.73h0l-3.52,2.89-3.37,12.56-26.05.68-4.55,13.02-.65,7.49-7.16,14.77-.78,13.05.6,9.56.94.93,4.08-.18-4.81,5.86.26,1.73-2.95,4.47,1.76,2.69h0l-10.19,3.68-1.66,2.06-1.96-.08-6.48,9.68-3.78-1.85-2.7.93-.61,3.23-.98.46.33,8.66-5.96,4.16,1.8,3.22-4.42,1.62-.04,3.87h-1.88l-4.42,3.53-1.85-.65-.79-2.5-3.91-.33-2.96,5.36-11.21,5.96-6.72.34-.25,3.03h0l-4.54-2.06-1.39-2.36.04-3.33-2.62-1.92,1.72-2.22,1.39-6.07-4.53-10.06-.71-8.41-3.27-2.48-5.02,2.03-3.35-.74,2.55-3.16-1.25-4.95.34-2.6-2.35-4.6,1.2-3.45-.16-7.04-3.75-3.05-2.77.89-.59,1.16-3.64-2.47-2.47.07-5.26-6.05-5.26-2.86-3.98-6.18-2.56-1.43-1.69.52-2.88-.98-7.31,1.05-1.45-2.81-3.25-2.71-2.86-.27-1.84-1.36-5.44-.48-1.81-2.66-4.58.61-1.65-3.16-4.32-.19-4.06-3.07-7.36-1.49-6.23-4.73h0l-1.01-.48-.85-2.67-2.65-.85-2.15-3.14-4.72.75-6.67-4.47-2.97,2.77-7.36-.56-1.01-7.4-3.94-7.08.63-2.24-2.74-14.3-5.95-7.91,1.01-7.2,1.81-1.13,4.39-.14,1.81-3.53,1.73-.87-.65-1.91,3.41-3.3,4.08-1.83,4.12-6.3,3.35-9.4-2.93-8.13h0l.59.83,4.34.6,1.35-31.77-2.99-10.01,9.8,5.41,1.79-.72,7.49,1.88,33.41-8.55h0l.71,4.7-1.24,3.11,1.53,4.08-.5,2.3.95.03,2.55,3.52,2.67-.52,4.06,1.95-.15,2.85,1.21,2.85h.95l-.57,1.58,1.38.94,1.04,5.7,6.87,2.73,6.63,1.28,3.9-7.39,4.9-.61,2.85-2.41-.37-3.82,1.13-1.25-1.05-2.52.57-2.9,5.06-3.4,3.05-7.02,3.12-.7.63-3.3.98.23,6.48-5.35,4.85,2.09,10.38,7.32,3.56-.1,2.88-3.87,4.19-1.92,1.45-2.3,5.3-3.4,1.01-4.51,4.31-1.49,3.27-6.15,4.75-2.28,1.45-3.93,2.8-3.61,4.8-2.9-.03-3.57-3.87-3.33-2.78-5.99-7.55-1.64-1.99-1.35.83-6.03,13.92.45,5.92-.93,6.76-4.95,5.41-2.55,3.89.16,7.43-1.99Z"/>
  <path id="LK-72" class="cls-2" d="M350.43,414.78l1.88-2.29,2.69.74,3.08,5.43,2.82-.23,4.9,3.1,2.39,10.87,2.8.12,5.05-1.76,5.2.04,3.79,1.83,7.58.19,7.69,4.3,5.09-1.94,4.19.6,7.38,7.23,1.79-.19,3.9,2.21,3.45-1.1,1.38,1.23.48,3.12-1.3,5.09.83,3.64,2.45,1.23-1.51,4.17-2.92,1.16-1.19,2.47,4.12.65,3.01-1.76,2.8-.65.65.64.83-5.2.64-1.23,1.65-.14-1.45-4.2,1.51-.6,2.28-3.74-.3-4.45,1.68.29.61-1.95,2.85-.74.3-.85-1.2-.87,1.87-.05.23-1.7,1.81-.64.33-1.81,1.9-1.31,6.03,2.32h0l1.13,3.56-2.15,58,9.26,19.96v5.4s-3.26.64-3.26.64l-3.2-1.45-2.36.8-2.7-2.37-2.43-.15-4,2.7-3.27-.87-2.69,1.01-4.45,4.57.03,8.56-2.21,3.48-.3,2.48,1.01,1.6.33,4.9-2.13,5.52,1.36,7.81-.8,3.9,2.88,5.65-.1,3.33,1.15,2.55h0l-2.06,4.75,1.55,2.35.26,5.06-1.04,1.99.76,2.22-4.6,2.11-.49,5.09-1.9,1.84-4.4-3.91-12.64-5.09-1.88.93-7.54-3.76-6.4-9.72-7.04-1.54-5.36,3.3-6.93-1.17-3.65,1.32-5.95-.94h0l-2.44,1.54-10.35.68-4.05,1.47-5.86-2.09-6.3.2-1.83,9.76-1.83-2.71-2.59.48-1.47-.86-.67-2.81-3.07,2.43-1.38,3.03-4.4.4-3.19,2.25-1.23-2.18-7.15.46-4.88-4.87,2.41,1.4,1.28-3.15-2.93-8.84.57-14.55-1.3-1.47,2.1-2.8,3.52-.91,1.12,1.53,2.73-1.32-.59-3.41,2.44-1.3,2.39-8.26-.31-2.96,2.67-17.03,2.78-4.25,1.17-3.95,5.3-2.33-3.65-2.62-3.97.25-1.4-2.65-1.55-.72-4.32,1.91-.15,4.4-2.93-.5-2.6-1.6.3-7.32-1.4-1.04-.56.82-.34-1.35-4.12-3.27h0l-1.76-2.69,2.95-4.47-.26-1.73,4.81-5.86-4.08.18-.94-.93-.6-9.56.78-13.05,7.16-14.77.65-7.49,4.55-13.02,26.05-.68,3.37-12.56,3.52-2.89Z"/>
  <path id="LK-81" class="cls-1" d="M365.18,611.06l2.1,3.8,6,2.41,1.62,1.8.61,11.82,1.76,3.03,2.09,1.12,3.37,8.97,3.8-.22.76-.44-.45-.75,2.22-1.31,3.15.85,10.13-9.03,13.85-6.89,6.68-1.17,2.99,2.69,1.83,2.47.38,10.76-2.17,4.24.08,8.1-1.83,1.51.63,1.72-3.35,4.3,1.66,1.64,3.38,11.55.1,2.37-1.9.65-.19,2.11,2.75,2.66,1.62,5.13,1.36.41,1.49,4.12,2.85-.48,1.87-1.98,2.44,1.8-.15,2.55,5.06,5.05,2.09,4.51-1.19,2.47.9,1.49h0l-1.64-.49-5.47,2.73-3.6.33,1.2,7.73-3.07,2.73-4.9,7.72-5.03,2.88.55,1.3-1.47,3.82-2.86.89-2.88-1.16-3.38-5.85-3.2,1.77-.91,2.97-3.63,3.57-.49,2.8,1.38,2.52,1.64,1.84,2.36.44.61,1.91,4.15,4.35,2.69,8.28,5.21-.49.97-2.39,5.06.3.89-.89,1.72,4.42,2.8-1.04,3.41,8.59,1.24,8.5-.37,3.67-3.57,5.59.68,6.3-3.86,1.53.25,2.21,1.65.9-.2.87-5.43,1.62-1.36,2.06,1.68,1.62-1.1,1.38-4.64.04-1.13-2.09-1.68,6.7-4.2,2.18-.63,1.64-8.17,2.96-2.52,1.91-2.11.1-.72,2.56,2.21.35,4.12,3.87,1.23,2.52-5.18,2.59-3.59-.44-2.45.82-.44,2.88,1.06,1.36-1.46.93-2.05.56-1.68-1.95-3.91.11-1.28,8.51,1.02,5.78-2.82,3.55-.83,2.7,1.24,1.24,4.12-.8,3.83,2.59-1.57,2.54-.35,3.16-3.64,2.06-1.04,13.27,1.06,5.05,5.32,4.49.56,1.99-2.7-.42-3.9,3.27.05,5.71-5.95-3.34-1.92,1.95-2.39,2.84-.65,8.54-7.45-9.05.9-4.08-1.09-2.84,1.2-4.06-2.3-1.53-3.26.97-.64-1.58.8-3.42-.89-2.67-2.06-2.6-2.8.74-1.46-.93-.42-4.6-3.38-1.87.14-3.22-2.74-.26-.57,1.04h0l-3.57-1.98.1,1.68-2.07,2.8-4.7.78-1.02,2.66-1.72.61-3.9.48-.8-1-1.72,2.22-2.7-2.5-4.91-.83-1.15-5.48-3.65-2.25-.11-1.61,8.43-4.15,3.4-.19-1.25-2.95,2.21-1.72-.12-1.4-.94-1.36-5.44.25-2.11-4.45-4.25,1.65.4-1.72-1.17-2.92,1.08-3.53-.85-1.8h0l1.7-1.01,2.93.7,2.5-2.65.79-2.51-5.41-2.03-.97-2.54.79-1.04,2.1.57,1.96-.97,1.64-3.14-4.68-4.66.95-3.97-1.83-1.51-1.53.6.74-3.23-1.66-.72.44-2.07-8.82-2.37-.33-1.64,1.4-1.46,9.45.67,3.9-2.96,1.38-7.12,7.38-6.15,3.49,1.23,4.6-1.32,1.88.34,5.78-3.75,2.59-8.02.07-4.98,2.48-1.28.78-3.16,4-2.43.72-3.04,1.88-.97-3.29-3.42.45-1.91-.97-1.17,1.58-3.68,2.13-1.7-1.6-1.77-2.48-.67.55-4.2,2.43.8.16-4.1-5.18-10.04.91-1.88h0l7.13,1.13,2.84-4.5,6.85-1.06,2.29-4.66-11.11-35.96,1.83-7.88-1.15-3.16-2.5-2.51,1.58-3.76-.27-16.87h0l-.68-21.59,1.47-5.14-.56-3.4,1.15-3.9-.37-3.64Z"/>
  <path id="LK-82" class="cls-2" d="M445.59,706.9l2.39,4.24-.48,1.68,2.52,1.88-.31,2.21,5.4-4.64,4.91-1.57-1.1-4.08,1.66-5.84-1.91-3.79.71-6.78.98.93,5.56-.4,6.2-2.17-1.08-2.43.56-1.43,2.56-.29,3.27-3.4-3.49-7.38.35-3.52,3.8.7,4.64-2.41.89-1.6-.38-2.95,3.94-.72.8-1.58,3.15-.56,5.52-4.09,6.18,1.02-4.62,6.7.82,1.34,3.33,1.06-1.3,7.9,2.05,3.86,3.01,11.33-3.25,3.6,5.15,5.6,4.06,1.66,1.73,2.21.5,1.53-.83,1.17,1.8,2.74.93,4.66-1.23,2.93,2.99.8,5.26,6.18-3.05,1.08-5.39,4.42-3.01,4.27-3.05,9.12,3.6,3.48-.57,5.07,1.12,4.09,1.57,1.51,3.31,1.96.91-1.21.8,1.28,5.6,2.22,3.72.19,6.26,3.22,4.95.33,1.4,5.3-2.13,2.06-1.2,4.35,1.5,2.62.35,3.46,1.94,1.47-.87,5.32,5.33,5.24-2.32,12.94-5.67,91.85h0l-2.3,4.84-3.01.11-2.1,2.78-4.36-1.04-5.02,4.96-3.87.16-2.44,4.45-4.31,1.5-7.2,5.05-1.02,2.48.25,3.78,1.9,2.41-2.73,4.25.97,8.11-2.11,3.05-1.47.29-1.57-1.7-3.55-.12-2.32-1.69-.91.87-2.41-.37-2.1,2.43-5.26.78-.56-2.05-1.49-.23-2.58,4.46-2.95.1-1.65,2.07-4.2.23-3.14,2.07-2.33.67-1.3-.7-2.85,1.91-1.24-1.28-9.35,3-1.36,3.85-2.86,2.47-2.62,1.45-2.14-.7-2.86.55-3.91-2.24.9-2.26-3.67-2.59-2.1-4.42-5.25-6.1-3.89.72-1.36,2.67-2.28.15-1.76-1.77-1.61.41-2.13-6.46-9.79.76-3.34-1.61-5,.1-.98,2.73-1.57.7-3.45-2.88.11,4.12-3.42,4.27-6.53-1.3-1.36,2.26-.22,5.1,2.07.14,2.07,2.69-1.2,3.9-9.8,4.5-4.01.8-3.26,3.2h0l-2.97,1.02h0l-6.97,3.9h0l-3.67-7.2.75-2.89-1.9-1.32.16-1.79-1.64-1.49-8.7-2.11-.79-3.5-1.94-1.19-.61-2.62-1.65-.71-2.32-4.28,1.54-1.45-1.77-5.48,1.32-1.92-1.8-1.79,1.15-.31-.29-2.11,1.02-1.87-4.17-9.34,3.18-7.23,3.9-4.23,2.74-4.92-.76-2.95,1.69-3.72-.25-1.49,1.76-.7-.79-3,1.94-.3.53-3.37-.82-1.23,2.65-2.07,1.46-3.64,3.6-2.09v-3.19s2.5-5.84,2.5-5.84l4.21-4.32h0l.57-1.04,2.74.26-.14,3.22,3.38,1.87.42,4.6,1.46.93,2.8-.74,2.06,2.6.89,2.67-.8,3.42.64,1.58,3.26-.97,2.3,1.53-1.2,4.06,1.09,2.84-.9,4.08,7.45,9.05.65-8.54,2.39-2.84,1.92-1.95,5.95,3.34-.05-5.71,3.9-3.27,2.7.42-.56-1.99-5.32-4.49-1.06-5.05,1.04-13.27,3.64-2.06.35-3.16,1.57-2.54-3.83-2.59-4.12.8-1.24-1.24.83-2.7,2.82-3.55-1.02-5.78,1.28-8.51,3.91-.11,1.68,1.95,2.05-.56,1.46-.93-1.06-1.36.44-2.88,2.45-.82,3.59.44,5.18-2.59-1.23-2.52-4.12-3.87-2.21-.35.72-2.56,2.11-.1,2.52-1.91,8.17-2.96.63-1.64,4.2-2.18,1.68-6.7,1.13,2.09,4.64-.04,1.1-1.38-1.68-1.62,1.36-2.06,5.43-1.62.2-.87-1.65-.9-.25-2.21,3.86-1.53-.68-6.3,3.57-5.59.37-3.67-1.24-8.5-3.41-8.59-2.8,1.04-1.72-4.42-.89.89-5.06-.3-.97,2.39-5.21.49-2.69-8.28-4.15-4.35-.61-1.91-2.36-.44-1.64-1.84-1.38-2.52.49-2.8,3.63-3.57.91-2.97,3.2-1.77,3.38,5.85,2.88,1.16,2.86-.89,1.47-3.82-.55-1.3,5.03-2.88,4.9-7.72,3.07-2.73-1.2-7.73,3.6-.33,5.47-2.73,1.64.49Z"/>
  <path id="LK-91" class="cls-1" d="M154.17,805.75l2.48-1.04,1.32-2.66.7,1.83,1.12.08.72,5.8,2.15-1.21,2.67,1.64,4.95,7.49,3.67,1.16.76,4.02,2.73.08.65-1.16,3.74-.82,2.22,1.95,2.7,5.21,3.25,1.7,2.24-1.23-.19-1.98,2.59-2.18,6.1-1.28.95,1.3,1.6-.1,3.08-2.67,5.82,3.93.76,1.54,1.65-.61.55-1.65,2.44,1.72.33,1.6,2.62.8,1.84-1.02,5.25,1.62,5.1-.23h0l-1.06,4.35.94,1.47,1.42-.25.44.83-3.76,3.26,3.4,4.95,2.93.48,4.35,2.43,4.65-2.09,7.8,3.22,11.63,1.24,5.59,1.66,5.06.59,1.51-.93.49-2.03,9.07.78,3.35,1.15,6.94-2.32,3.65,1.4,8.13-5.51,4.08,1.2,5.56-4.95h0l.85,1.8-1.08,3.53,1.17,2.92-.4,1.72,4.25-1.65,2.11,4.45,5.44-.25.94,1.36.12,1.4-2.21,1.72,1.25,2.95-3.4.19-8.43,4.15.11,1.61,3.65,2.25,1.15,5.48,4.91.83,2.7,2.5,1.72-2.22.8,1,3.9-.48,1.72-.61,1.02-2.66,4.7-.78,2.07-2.8-.1-1.68,3.57,1.98h0l-4.21,4.32-2.48,5.84v3.19s-3.61,2.09-3.61,2.09l-1.46,3.64-2.65,2.07.82,1.23-.53,3.37-1.94.3.79,3-1.76.7.25,1.49-1.69,3.72.76,2.95-2.74,4.92-3.9,4.23-3.18,7.23,4.17,9.34-1.02,1.87.29,2.11-1.15.31,1.8,1.79-1.32,1.92,1.77,5.48-1.54,1.45,2.32,4.28,1.65.71.61,2.62,1.94,1.19.79,3.5,8.7,2.11,1.64,1.49-.16,1.79,1.9,1.32-.75,2.89,3.67,7.2h0l3.33,3.01.8,3.72,1.73.19.34,3.5,2.81,5.24-3.57,2.97-2.37-3.33-5.69.55-4.9-3.03-2.9.75-3.52-5.59-3.1-1.45-9.15,1.8-7.32-.45-7.43-3.45-3.08-.41-7.51-4.24-5.66-1.16-2.15-1.57-9.33.12h0l-.1-3.49,1.5-.85-1.19-1.4-1.75-.1-1.99-2.71,1.68-.71-.56-3.85-8.22.63-5.56,1.54-1.27-3.79,3.01-3.14-.52-2.77,1.23-1.54-.34-2.6-6-.35-5,1.9-3.7-1.01-2.86,1.32-1.46-1.83-1.2.42-.16,1.51-2.97.25-.03,3.82-10.57,1.84h0l-1.17-3.44-5.21.52-1.88-2.13-3.83-.48-2.96-1.91-2.47,1.46-3.42-.83-10.21-9.2h0l-2.06-5.22-19.15-26.36.15-1.15-3.01-4.73,4.04-2.5,1.19.27-2.86-7.02-5.75-5.97-6.03-1.17-1.4-1.36-1.66-3.33.68-2.32-.6-2.97-2.07-3.33-4.06-2.37-1.45-2.86-1.75-.67-1.55-5.24-2.95-4.53.03-1.08,1.72.37.11-.86-3.72-7.57-.05-6.18-2.62-3.52-1.21-3.38.46-1.51h0l5.17-.03,1.15-1.04-.1-3.95-2.06-5.24-1.31-1.45-3.56-.85,1.21-2.33.59-5.18,1.94-1.72.03-1.84,1.47-1.32,1.32.16-.37-1.3,2.9-2.55Z"/>
  <path id="LK-92" class="cls-1" d="M149.63,712.32l2.43.04,3.07-4.54,14.41-10.16,2.7-1.15,2.85.55,8.02-1.68,1.05-1.83,1.72-.49,4.09,1.69,2.39-5.14-1.27-2.71,2.95-3.03-1-3.71-1.9-2.6.59-.89,2.05.52,10.42-3.19,2,2.4,2.07.15,1.24,1.19-.11,1.51,1.99,2.39-.41,2.66,1.45.48h0l1.21,6.86,1.31,1.65,2.39,2.07,4.13,1.61.71,1.87,6.55,5.89-.18,3.37-1.31.8.98,1.68,6.71,1.53,1.79,3.52,2.28,1.19,1.02,1.75-.03,3.93-2.69,2.02.18,1.34,8.74,8.1.85,2.56-.42.72-3.63.19-1.13,1.2,1.47,3.1-1.4-.33-1.02,1.39-1-1.45-3.26.78-1.1,4.23-1.04-.23-.55,1.79-5.06.9-1.02-.76-2.22,1.42-4,.07-2.75,2.29,2.32,3.44,2.89,9.86,1.76.05-2.02,2.11-.78,2.82.68,5.2h0l.25,1.1,1.04.03-.2,1.96-4.7,4.91-3.48.33-1.24,1.51-.19,1.9,3.2,3.04.42,2.54-2.18,2.66-.03,9.12-.86.18-.38,2.29,5.97,2.06,1.46,1.64,5.5.46,4.94,3.18-.85,4.17,1.43,1.72.07,2.25,2.47,1.24.57,1.46-2.1,3.26-2.15,1.08h0l-5.1.23-5.25-1.62-1.84,1.02-2.62-.8-.33-1.6-2.44-1.72-.55,1.65-1.65.61-.76-1.54-5.82-3.93-3.08,2.67-1.6.1-.95-1.3-6.1,1.28-2.59,2.18.19,1.98-2.24,1.23-3.25-1.7-2.7-5.21-2.22-1.95-3.74.82-.65,1.16-2.73-.08-.76-4.02-3.67-1.16-4.95-7.49-2.67-1.64-2.15,1.21-.72-5.8-1.12-.08-.7-1.83-1.32,2.66-2.48,1.04h0l-.57-5.47,3.23.44,1.02-1.64-.07-2.18-1.43-1.98.11-4.38-2.96-1.6-2.07.83-2.81-.61-1.46,1.01-1.4-.98h0l.82-4.65-2.29-4.16-2.73-13.42,2.59-3.34,3.2-8.28,2.35.11,1.46-3.98,2.37-1.7.18-2.29-1.72-1.34-7.76.22-3.29,2.78-2.32-6.71.1-7.39-2.36-3.48,3.19,1.3,1.47-2.62,5.96-.3.61-7.47-.74-3.7,4.12-2.99-1.35-3.46Z"/>
</svg>